<svg width="43" height="44" viewBox="0 0 43 44" fill="none" xmlns="http://www.w3.org/2000/svg">
<path d="M36.747 28.7891H14.7115C14.3459 28.7897 13.9909 28.6659 13.7049 28.4381C13.4189 28.2103 13.2189 27.892 13.1378 27.5355L9.42742 11.3706C9.37315 11.1345 9.37282 10.8892 9.42647 10.6529C9.48012 10.4166 9.58637 10.1955 9.73729 10.0059C9.88822 9.8164 10.0799 9.66334 10.2982 9.55814C10.5165 9.45295 10.7556 9.39833 10.9979 9.39835H40.4605C40.7031 9.39785 40.9426 9.45211 41.1613 9.55709C41.38 9.66208 41.5721 9.81508 41.7234 10.0047C41.8747 10.1943 41.9812 10.4156 42.035 10.6521C42.0889 10.8886 42.0886 11.1342 42.0343 11.3706L38.3175 27.5355C38.2364 27.8914 38.0369 28.2093 37.7516 28.4371C37.4662 28.6648 37.112 28.7889 36.747 28.7891ZM15.9941 25.5664H35.4643L38.4367 12.6242H13.0207L15.9941 25.5664Z" fill="white"/>
<path d="M17.8643 43.1836C16.6431 43.1836 15.4493 42.8215 14.4339 42.143C13.4185 41.4645 12.6271 40.5002 12.1597 39.3719C11.6924 38.2436 11.5701 37.0021 11.8083 35.8044C12.0466 34.6066 12.6347 33.5064 13.4982 32.6429C14.3617 31.7793 15.4619 31.1913 16.6597 30.953C17.8575 30.7148 19.099 30.8371 20.2272 31.3044C21.3555 31.7717 22.3198 32.5632 22.9983 33.5786C23.6768 34.594 24.0389 35.7878 24.0389 37.009C24.0372 38.6461 23.3861 40.2156 22.2285 41.3732C21.0709 42.5308 19.5014 43.1819 17.8643 43.1836ZM17.8643 34.0581C17.2804 34.0581 16.7096 34.2313 16.2242 34.5557C15.7387 34.8801 15.3604 35.3412 15.137 35.8807C14.9136 36.4201 14.8552 37.0137 14.9692 37.5864C15.0831 38.159 15.3644 38.685 15.7773 39.0978C16.1903 39.5106 16.7164 39.7916 17.2891 39.9054C17.8618 40.0192 18.4553 39.9606 18.9947 39.737C19.5341 39.5134 19.9951 39.1349 20.3193 38.6493C20.6435 38.1637 20.8165 37.5929 20.8163 37.009C20.8154 36.2264 20.5041 35.4762 19.9506 34.923C19.3972 34.3697 18.6469 34.0587 17.8643 34.0581Z" fill="white"/>
<path d="M33.5931 43.1836C32.3718 43.1836 31.178 42.8215 30.1626 42.143C29.1472 41.4645 28.3558 40.5002 27.8885 39.3719C27.4211 38.2436 27.2989 37.0021 27.5371 35.8044C27.7754 34.6066 28.3634 33.5064 29.227 32.6429C30.0905 31.7793 31.1907 31.1913 32.3885 30.953C33.5862 30.7148 34.8277 30.8371 35.956 31.3044C37.0843 31.7717 38.0486 32.5632 38.7271 33.5786C39.4055 34.594 39.7677 35.7878 39.7677 37.009C39.766 38.6461 39.1149 40.2156 37.9573 41.3732C36.7997 42.5308 35.2302 43.1819 33.5931 43.1836ZM33.5931 34.0581C33.0092 34.0581 32.4384 34.2313 31.9529 34.5557C31.4675 34.8801 31.0891 35.3412 30.8657 35.8807C30.6423 36.4201 30.5839 37.0137 30.6979 37.5864C30.8119 38.159 31.0932 38.685 31.5061 39.0978C31.919 39.5106 32.4451 39.7916 33.0178 39.9054C33.5905 40.0192 34.1841 39.9606 34.7235 39.737C35.2629 39.5134 35.7238 39.1349 36.0481 38.6493C36.3723 38.1637 36.5452 37.5929 36.545 37.009C36.5442 36.2264 36.2329 35.4762 35.6794 34.923C35.126 34.3697 34.3756 34.0587 33.5931 34.0581Z" fill="white"/>
<path d="M10.9979 12.621C10.6596 12.621 10.33 12.5145 10.0556 12.3167C9.78127 12.1189 9.57612 11.8397 9.46924 11.5188L6.70742 3.22266H1.61133C1.18398 3.22266 0.77413 3.05289 0.471947 2.75071C0.169764 2.44853 0 2.03868 0 1.61133C0 1.18398 0.169764 0.77413 0.471947 0.471947C0.77413 0.169764 1.18398 0 1.61133 0H7.87402C8.21225 3.12946e-05 8.5419 0.106495 8.81625 0.304307C9.09061 0.50212 9.29576 0.781249 9.40264 1.10215L12.5318 10.5005C12.6125 10.7427 12.6345 11.0006 12.5959 11.2529C12.5574 11.5053 12.4595 11.7448 12.3102 11.9519C12.1609 12.159 11.9646 12.3276 11.7373 12.444C11.5101 12.5603 11.2585 12.621 11.0032 12.621H10.9979Z" fill="#FBF5FF"/>
</svg>
