<svg width="24" height="24" viewBox="0 0 24 24" fill="none" xmlns="http://www.w3.org/2000/svg">
<path d="M20.4228 16H8.17627C7.97306 16.0003 7.77579 15.9315 7.61685 15.8049C7.45791 15.6783 7.34675 15.5014 7.30164 15.3033L5.23955 6.3194C5.20939 6.18817 5.20921 6.05182 5.23903 5.92051C5.26884 5.7892 5.32789 5.6663 5.41177 5.56096C5.49565 5.45562 5.60221 5.37056 5.72351 5.31209C5.84481 5.25363 5.97773 5.22327 6.11239 5.22328H22.4867C22.6215 5.223 22.7547 5.25316 22.8762 5.31151C22.9977 5.36986 23.1045 5.45489 23.1886 5.56026C23.2726 5.66563 23.3319 5.78863 23.3618 5.92007C23.3917 6.05152 23.3915 6.18802 23.3613 6.3194L21.2957 15.3033C21.2506 15.5011 21.1397 15.6778 20.9812 15.8044C20.8226 15.9309 20.6257 15.9999 20.4228 16ZM8.8891 14.209H19.71L21.3619 7.01612H7.23657L8.8891 14.209Z" fill="black"/>
<path d="M9.92847 24C9.24975 24 8.58628 23.7987 8.02195 23.4217C7.45762 23.0446 7.01778 22.5086 6.75805 21.8816C6.49831 21.2545 6.43036 20.5646 6.56277 19.8989C6.69518 19.2332 7.02201 18.6217 7.50193 18.1418C7.98186 17.6619 8.59332 17.3351 9.25899 17.2027C9.92466 17.0702 10.6147 17.1382 11.2417 17.3979C11.8688 17.6577 12.4047 18.0975 12.7818 18.6618C13.1588 19.2262 13.3601 19.8896 13.3601 20.5684C13.3592 21.4782 12.9973 22.3505 12.354 22.9939C11.7106 23.6372 10.8383 23.9991 9.92847 24ZM9.92847 18.9284C9.60396 18.9284 9.28675 19.0246 9.01694 19.2049C8.74713 19.3852 8.53685 19.6415 8.4127 19.9413C8.28854 20.2411 8.25609 20.571 8.31944 20.8892C8.38279 21.2075 8.5391 21.4998 8.7686 21.7292C8.99811 21.9587 9.29049 22.1149 9.60877 22.1781C9.92705 22.2413 10.2569 22.2088 10.5567 22.0845C10.8565 21.9602 11.1127 21.7499 11.2929 21.48C11.4731 21.2101 11.5692 20.8929 11.5691 20.5684C11.5686 20.1334 11.3956 19.7165 11.088 19.409C10.7804 19.1015 10.3634 18.9287 9.92847 18.9284Z" fill="black"/>
<path d="M18.6699 24C17.9912 24 17.3277 23.7987 16.7634 23.4217C16.1991 23.0446 15.7592 22.5086 15.4995 21.8816C15.2398 21.2545 15.1718 20.5646 15.3042 19.8989C15.4366 19.2332 15.7635 18.6217 16.2434 18.1418C16.7233 17.6619 17.3348 17.3351 18.0004 17.2027C18.6661 17.0702 19.3561 17.1382 19.9832 17.3979C20.6102 17.6577 21.1462 18.0975 21.5232 18.6618C21.9003 19.2262 22.1016 19.8896 22.1016 20.5684C22.1006 21.4782 21.7388 22.3505 21.0954 22.9939C20.4521 23.6372 19.5798 23.9991 18.6699 24ZM18.6699 18.9284C18.3454 18.9284 18.0282 19.0246 17.7584 19.2049C17.4886 19.3852 17.2783 19.6415 17.1542 19.9413C17.03 20.2411 16.9975 20.571 17.0609 20.8892C17.1242 21.2075 17.2806 21.4998 17.5101 21.7292C17.7396 21.9587 18.0319 22.1149 18.3502 22.1781C18.6685 22.2413 18.9984 22.2088 19.2982 22.0845C19.5979 21.9602 19.8541 21.7499 20.0343 21.48C20.2145 21.2101 20.3106 20.8929 20.3105 20.5684C20.31 20.1334 20.137 19.7165 19.8294 19.409C19.5219 19.1015 19.1048 18.9287 18.6699 18.9284Z" fill="black"/>
<path d="M6.11224 7.01433C5.92426 7.01431 5.74106 6.95514 5.58858 6.8452C5.4361 6.73527 5.32209 6.58014 5.26269 6.40179L3.72776 1.79104H0.895522C0.658015 1.79104 0.430235 1.6967 0.262292 1.52875C0.0943494 1.36081 0 1.13303 0 0.895522C0 0.658015 0.0943494 0.430235 0.262292 0.262292C0.430235 0.0943494 0.658015 0 0.895522 0H4.37612C4.5641 1.73925e-05 4.7473 0.0591864 4.89978 0.169124C5.05226 0.279061 5.16627 0.434192 5.22567 0.612537L6.96478 5.83582C7.00961 5.97042 7.02182 6.11375 7.0004 6.254C6.97898 6.39424 6.92455 6.52739 6.84159 6.64248C6.75863 6.75757 6.64951 6.8513 6.52322 6.91595C6.39693 6.98059 6.2571 7.01432 6.11522 7.01433H6.11224Z" fill="black"/>
</svg>
