<svg width="51" height="51" viewBox="0 0 51 51" fill="none" xmlns="http://www.w3.org/2000/svg">
<g clip-path="url(#clip0_15_39)">
<path d="M41.4375 3.1875H12.75C11.9046 3.1875 11.0939 3.52332 10.4961 4.1211C9.89832 4.71887 9.5625 5.52962 9.5625 6.375V12.75H6.375V15.9375H9.5625V23.9062H6.375V27.0938H9.5625V35.0625H6.375V38.25H9.5625V44.625C9.5625 45.4704 9.89832 46.2811 10.4961 46.8789C11.0939 47.4767 11.9046 47.8125 12.75 47.8125H41.4375C42.2829 47.8125 43.0936 47.4767 43.6914 46.8789C44.2892 46.2811 44.625 45.4704 44.625 44.625V6.375C44.625 5.52962 44.2892 4.71887 43.6914 4.1211C43.0936 3.52332 42.2829 3.1875 41.4375 3.1875ZM41.4375 44.625H12.75V38.25H15.9375V35.0625H12.75V27.0938H15.9375V23.9062H12.75V15.9375H15.9375V12.75H12.75V6.375H41.4375V44.625Z" fill="black"/>
<path d="M35.0625 12.75H22.3125V15.9375H35.0625V12.75Z" fill="black"/>
<path d="M35.0625 23.9062H22.3125V27.0938H35.0625V23.9062Z" fill="black"/>
<path d="M35.0625 35.0625H22.3125V38.25H35.0625V35.0625Z" fill="black"/>
</g>
<defs>
<clipPath id="clip0_15_39">
<rect width="51" height="51" fill="white"/>
</clipPath>
</defs>
</svg>
