<svg width="55" height="55" viewBox="0 0 55 55" fill="none" xmlns="http://www.w3.org/2000/svg">
<path d="M12.8906 21.0547C12.8906 29.0898 19.4648 35.6641 27.5 35.6641C35.5352 35.6641 42.1094 29.0898 42.1094 21.0547C42.1094 13.0195 35.5352 6.44531 27.5 6.44531C19.4648 6.44531 12.8906 13.0195 12.8906 21.0547ZM38.6719 21.0547C38.6719 27.1992 33.6445 32.2266 27.5 32.2266C21.3555 32.2266 16.3281 27.1992 16.3281 21.0547C16.3281 14.9102 21.3555 9.88281 27.5 9.88281C33.6445 9.88281 38.6719 14.9102 38.6719 21.0547Z" fill="black"/>
<path d="M10.4844 51.3047C15.0391 46.75 21.0547 44.2578 27.5 44.2578C33.9453 44.2578 39.9609 46.75 44.5156 51.3047L46.9648 48.8555C41.7656 43.6992 34.8477 40.8203 27.5 40.8203C20.1523 40.8203 13.2344 43.6992 8.03516 48.8555L10.4844 51.3047Z" fill="black"/>
</svg>
