<svg width="142" height="51" viewBox="0 0 142 51" fill="none" xmlns="http://www.w3.org/2000/svg">
<g filter="url(#filter0_d_47_64)">
<path d="M26.9505 22.8697L26.9504 22.8698L26.9437 22.8612C26.9435 22.861 26.9433 22.8607 26.9431 22.8605L26.8948 22.8019L18.7519 12.9271L18.5259 12.6531L18.7508 12.3781L25.5214 4.09817L25.6512 3.93941H25.6519C25.6545 3.93609 25.6571 3.93279 25.6597 3.92952L25.6597 3.92949L25.6641 3.92408L27.2832 1.94393L27.2831 1.94385L27.2899 1.93598C27.5945 1.58112 27.8444 1.30311 28.049 1.08512H27.5004H24.9483L17.5742 10.5969L17.2302 11.0406L16.8888 10.5948L9.60621 1.08512H6.9631H6.41527C6.78128 1.47529 7.29429 2.0597 8.0089 2.93656L8.00891 2.93655L8.01132 2.93956L8.81145 3.93941H8.81157L8.94146 4.10174L15.5956 12.4179L15.8131 12.6896L15.5942 12.9602L7.63575 22.7987L7.50589 22.9592H7.50205C7.45804 23.0148 7.41494 23.069 7.37227 23.1227C7.34545 23.1564 7.31881 23.1899 7.29222 23.2234L7.29224 23.2234L7.28975 23.2265L6.46136 24.2506L6.46138 24.2506L6.45867 24.2539C5.86693 24.9709 5.42781 25.4683 5.10366 25.8138H5.65287H8.24171L16.861 14.7782L17.2007 14.3432L17.542 14.7771L26.2224 25.8138H28.8702H29.4189C29.292 25.6785 29.1477 25.5203 28.9839 25.3351L28.9789 25.3294L28.9741 25.3236L26.9505 22.8697Z" stroke="black" stroke-width="0.865216"/>
<path d="M122.236 10.8779L122.236 10.8779C121.777 10.7604 121.304 10.5803 120.815 10.3393C120.27 10.0706 119.851 9.66769 119.575 9.13575C119.301 8.61155 119.176 7.98836 119.176 7.2867C119.176 6.38676 119.411 5.58895 119.896 4.91358L119.896 4.91333C120.372 4.25085 121.011 3.76013 121.802 3.44152C122.549 3.1397 123.323 2.92038 124.123 2.78205L124.123 2.782C124.919 2.64491 125.764 2.57629 126.657 2.57629C128.503 2.57629 130.081 2.87311 131.37 3.48845C131.522 3.56105 131.672 3.63826 131.818 3.71812L132.486 4.08101L132.439 4.10855C133.452 4.78858 133.963 5.38766 134.208 5.87711C134.254 5.96985 134.29 6.05827 134.319 6.14199L134.948 5.83006L134.946 5.82195L135.284 5.65979L136.729 4.96646C134.765 1.96912 131.438 0.432596 126.627 0.432596C123.655 0.432596 121.39 0.981609 119.785 2.02992L119.785 2.02996L119.78 2.03327C117.936 3.20068 117.004 4.98654 117.004 7.4679C117.004 9.11835 117.481 10.4352 118.41 11.4543L118.41 11.4546C118.869 11.9593 119.448 12.3591 120.154 12.651L120.155 12.6511C120.888 12.955 121.574 13.1555 122.214 13.258L122.214 13.258C122.881 13.3649 124.081 13.5151 125.824 13.7083C125.824 13.7083 125.824 13.7083 125.824 13.7083L129.101 14.0703C129.881 14.1441 130.552 14.2432 131.111 14.3687L131.112 14.3689C131.683 14.4978 132.284 14.7081 132.913 14.9954L132.913 14.9956C133.594 15.3074 134.125 15.7696 134.488 16.3832L134.488 16.3835C134.85 16.9969 135.019 17.7296 135.019 18.561C135.019 20.0755 134.488 21.3423 133.421 22.3233L133.419 22.325C132.033 23.5855 129.995 24.1777 127.386 24.1777C124.91 24.1777 122.786 23.7596 121.031 22.9023C120.75 22.768 120.488 22.628 120.241 22.4845L120.241 22.4845L120.235 22.481C119.933 22.2989 119.659 22.1198 119.423 21.9472C119.421 21.9454 119.418 21.9433 119.415 21.9409C119.413 21.9399 119.412 21.9388 119.41 21.9376C118.484 21.2576 118.057 20.664 117.881 20.1903C117.874 20.1721 117.868 20.1541 117.862 20.1363L116.902 20.6124L116.902 20.6124L116.899 20.6137L115.587 21.2535C116.555 22.9438 118.008 24.2092 119.963 25.0516L119.963 25.0516C122.09 25.9683 124.461 26.4301 127.083 26.4301C129.033 26.4301 130.694 26.1863 132.076 25.7104L132.076 25.7104C133.468 25.2313 134.49 24.5998 135.176 23.8369C135.893 23.0387 136.397 22.2111 136.7 21.3534C137.006 20.4854 137.161 19.544 137.161 18.5248C137.161 16.5612 136.584 15.0632 135.469 13.9769C134.341 12.8782 132.72 12.1803 130.556 11.9217C130.556 11.9217 130.556 11.9216 130.555 11.9216L123.905 11.1606C123.905 11.1606 123.905 11.1606 123.904 11.1606C123.245 11.0866 122.688 10.9933 122.236 10.8779Z" stroke="black" stroke-width="0.865216"/>
<path d="M33.4764 25.8139H34.5242H35.7239C35.7208 23.7795 35.7007 16.8672 35.6636 5.07673L35.6597 3.82931L36.4351 4.80646L53.1052 25.8139H55.4409V3.60393H55.4408L55.441 3.59622C55.4643 2.2888 55.5452 1.53068 55.6315 1.08521H54.5826H53.3905C53.3958 2.95947 53.4259 9.85918 53.4809 21.7855L53.4867 23.0413L52.7087 22.0555L36.16 1.08521H33.6732V22.5267C33.6732 24.3 33.5808 25.2612 33.4811 25.7895C33.4795 25.7977 33.478 25.8058 33.4764 25.8139Z" stroke="black" stroke-width="0.865216"/>
<path d="M86.9527 1.08521C86.9532 1.08765 86.9537 1.0901 86.9542 1.09256C87.0526 1.60486 87.1449 2.53381 87.1496 4.24197V4.24315L87.1496 22.6559L87.1496 22.6571C87.1449 24.3653 87.0526 25.2942 86.9542 25.8065C86.9537 25.809 86.9532 25.8114 86.9527 25.8139H88.0013H88.324H89.3726C89.3721 25.8114 89.3717 25.809 89.3712 25.8065C89.2727 25.2942 89.1804 24.3653 89.1757 22.6571V22.6559L89.1757 4.24315L89.1758 4.24197C89.1804 2.53381 89.2727 1.60486 89.3712 1.09256C89.3717 1.0901 89.3721 1.08765 89.3726 1.08521H88.324H88.0013H86.9527Z" stroke="black" stroke-width="0.865216"/>
<path d="M109.556 23.2287V23.2287H109.551H97.929H97.4964V22.7961V4.37202V3.93941H97.5002C97.514 2.43946 97.5992 1.59307 97.6905 1.10949C97.692 1.10128 97.6936 1.09316 97.6951 1.08512H96.6475H96.3248H95.2757C95.3598 1.51889 95.4387 2.24803 95.4644 3.48971L95.4645 3.48971V3.49867V23.4H95.4646L95.4644 23.409C95.4387 24.6506 95.3598 25.3798 95.2757 25.8135H96.3248H111.885V24.3309V23.0192C111.447 23.124 110.734 23.2134 109.556 23.2287Z" stroke="black" stroke-width="0.865216"/>
<mask id="path-6-inside-1_47_64" fill="white">
<path d="M65.8185 17.0023L71.1652 4.31386L76.421 17.0023H65.8185ZM82.2857 22.5267H82.2658L72.8665 0.652605H69.6159L59.5895 23.7314C58.477 26.0982 58.1321 26.2465 58.1321 26.2465H58.4969H58.5012H59.7848H61.9297L64.5425 19.9387H77.7273L80.3399 26.2465H82.6369H83.8641H83.9205H84.2896C84.2896 26.2465 83.8357 26.0537 82.2857 22.5267Z"/>
</mask>
<path d="M65.8185 17.0023V17.8675H64.515L65.0212 16.6663L65.8185 17.0023ZM71.1652 4.31386L70.3679 3.97788L71.172 2.0695L71.9646 3.98275L71.1652 4.31386ZM76.421 17.0023L77.2204 16.6712L77.7159 17.8675H76.421V17.0023ZM82.2658 22.5267V23.3919H81.6958L81.4708 22.8683L82.2658 22.5267ZM72.8665 0.652605V-0.21261H73.4364L73.6615 0.311024L72.8665 0.652605ZM69.6159 0.652605L68.8224 0.307848L69.0485 -0.21261H69.6159V0.652605ZM59.5895 23.7314L60.3831 24.0761L60.378 24.0879L60.3725 24.0994L59.5895 23.7314ZM58.1321 26.2465V27.1117L57.7903 25.4516L58.1321 26.2465ZM61.9297 26.2465L62.7291 26.5776L62.5078 27.1117H61.9297V26.2465ZM64.5425 19.9387L63.7432 19.6076L63.9644 19.0735H64.5425V19.9387ZM77.7273 19.9387V19.0735H78.3054L78.5267 19.6076L77.7273 19.9387ZM80.3399 26.2465V27.1117H79.7618L79.5406 26.5775L80.3399 26.2465ZM84.2896 26.2465L84.6278 25.4501L84.2896 27.1117V26.2465ZM65.0212 16.6663L70.3679 3.97788L71.9625 4.64984L66.6158 17.3383L65.0212 16.6663ZM71.9646 3.98275L77.2204 16.6712L75.6216 17.3334L70.3658 4.64496L71.9646 3.98275ZM76.421 17.8675H65.8185V16.1371H76.421V17.8675ZM82.2857 23.3919H82.2658V21.6615H82.2857V23.3919ZM81.4708 22.8683L72.0716 0.994186L73.6615 0.311024L83.0607 22.1852L81.4708 22.8683ZM72.8665 1.51782H69.6159V-0.21261H72.8665V1.51782ZM70.4095 0.997364L60.3831 24.0761L58.7959 23.3866L68.8224 0.307848L70.4095 0.997364ZM60.3725 24.0994C59.8074 25.3017 59.4212 25.9756 59.1602 26.3614C59.0294 26.5546 58.9194 26.6915 58.8222 26.791C58.7729 26.8415 58.7216 26.8877 58.6673 26.9283C58.6397 26.9489 58.6102 26.969 58.5785 26.9878C58.5626 26.9973 58.546 27.0066 58.5286 27.0155C58.5199 27.02 58.511 27.0244 58.5019 27.0287C58.4973 27.0308 58.4927 27.033 58.488 27.0351C58.4857 27.0361 58.4834 27.0372 58.481 27.0382C58.4798 27.0387 58.478 27.0395 58.4774 27.0398C58.4757 27.0405 58.4739 27.0413 58.1321 26.2465C57.7903 25.4516 57.7885 25.4524 57.7867 25.4532C57.7861 25.4534 57.7844 25.4542 57.7832 25.4547C57.7809 25.4557 57.7785 25.4568 57.7762 25.4578C57.7717 25.4599 57.7672 25.4619 57.7628 25.464C57.754 25.4682 57.7456 25.4723 57.7376 25.4764C57.7216 25.4847 57.707 25.4928 57.6939 25.5006C57.6678 25.5161 57.6468 25.5307 57.6309 25.5426C57.615 25.5545 57.6033 25.5644 57.5959 25.571C57.5884 25.5776 57.5846 25.5815 57.5845 25.5817C57.5843 25.5818 57.5873 25.5787 57.5936 25.5715C57.5999 25.5644 57.609 25.5535 57.6212 25.5381C57.6456 25.5072 57.6807 25.4601 57.727 25.3916C57.9165 25.1115 58.2591 24.5279 58.8065 23.3633L60.3725 24.0994ZM58.1321 25.3812H58.4969V27.1117H58.1321V25.3812ZM58.4969 25.3812H58.5012V27.1117H58.4969V25.3812ZM58.5012 25.3812H59.7848V27.1117H58.5012V25.3812ZM59.7848 25.3812H61.9297V27.1117H59.7848V25.3812ZM61.1304 25.9154L63.7432 19.6076L65.3419 20.2698L62.7291 26.5776L61.1304 25.9154ZM64.5425 19.0735H77.7273V20.8039H64.5425V19.0735ZM78.5267 19.6076L81.1393 25.9154L79.5406 26.5775L76.928 20.2698L78.5267 19.6076ZM80.3399 25.3812H82.6369V27.1117H80.3399V25.3812ZM82.6369 25.3812H83.8641V27.1117H82.6369V25.3812ZM83.8641 25.3812H83.9205V27.1117H83.8641V25.3812ZM83.9205 25.3812H84.2896V27.1117H83.9205V25.3812ZM84.2896 26.2465C83.9514 27.0428 83.9493 27.0419 83.9472 27.0411C83.9466 27.0408 83.9445 27.0399 83.9431 27.0393C83.9404 27.0381 83.9377 27.0369 83.935 27.0357C83.9296 27.0332 83.9242 27.0308 83.919 27.0283C83.9085 27.0233 83.8983 27.0182 83.8883 27.013C83.8684 27.0027 83.8495 26.9918 83.8315 26.9808C83.7957 26.9588 83.7625 26.9352 83.7317 26.911C83.671 26.8632 83.6128 26.8074 83.5553 26.7444C83.442 26.6202 83.3061 26.4398 83.1363 26.1694C82.7966 25.6287 82.276 24.6552 81.4936 22.8748L83.0778 22.1786C83.8454 23.9252 84.3268 24.8115 84.6016 25.249C84.739 25.4677 84.8134 25.5559 84.8336 25.5781C84.8429 25.5882 84.8323 25.5751 84.8024 25.5516C84.7871 25.5395 84.7652 25.5235 84.7368 25.5061C84.7225 25.4973 84.7063 25.488 84.6882 25.4786C84.6792 25.4739 84.6696 25.4691 84.6596 25.4643C84.6546 25.462 84.6494 25.4596 84.6441 25.4572C84.6415 25.456 84.6388 25.4548 84.6361 25.4536C84.6347 25.453 84.6327 25.4522 84.632 25.4519C84.6299 25.451 84.6278 25.4501 84.2896 26.2465Z" fill="black" mask="url(#path-6-inside-1_47_64)"/>
<path d="M35.8186 37.5854C35.8186 37.5894 35.8187 37.5934 35.8187 37.5974C35.8187 37.677 35.8083 37.7214 35.8006 37.7433C35.7896 37.7271 35.7776 37.6988 35.7776 37.6407H35.345L35.5825 37.9404L35.5827 37.9406L35.6137 37.9798C35.6832 37.9246 35.7477 37.8602 35.8019 37.7854C35.8045 37.7818 35.807 37.7782 35.8096 37.7746L36.1281 38.0345L35.8096 37.7746C35.8432 37.7265 35.8726 37.6743 35.8964 37.6176L35.8482 37.5974L35.8186 37.585M35.8186 37.5854C35.8186 37.5853 35.8186 37.5851 35.8186 37.585M35.8186 37.5854L35.4974 37.4504L35.8186 37.585M35.8186 37.5854L35.6907 37.152C35.6992 37.1648 35.7072 37.1778 35.7148 37.1909C35.7813 37.3059 35.8168 37.4344 35.8186 37.585" stroke="black" stroke-width="0.865216"/>
<mask id="path-9-inside-2_47_64" fill="white">
<path d="M38.6162 40.8331V40.6599L39.1962 40.5736V36.568H38.5728L37.9421 37.9952H37.739L37.8478 36.3514H41.2698L41.3787 37.9952H41.1756L40.5376 36.568H39.9214V40.5736L40.5014 40.6599V40.8331H38.6162Z"/>
</mask>
<path d="M38.6162 40.8331V41.6983H37.751V40.8331H38.6162ZM38.6162 40.6599H37.751V39.9138L38.4889 39.8041L38.6162 40.6599ZM39.1962 40.5736H40.0615V41.3197L39.3235 41.4294L39.1962 40.5736ZM39.1962 36.568V35.7028H40.0615V36.568H39.1962ZM38.5728 36.568L37.7814 36.2182L38.0092 35.7028H38.5728V36.568ZM37.9421 37.9952L38.7335 38.3449L38.5057 38.8604H37.9421V37.9952ZM37.739 37.9952V38.8604H36.8146L36.8757 37.938L37.739 37.9952ZM37.8478 36.3514L36.9845 36.2943L37.038 35.4862H37.8478V36.3514ZM41.2698 36.3514V35.4862H42.0797L42.1332 36.2943L41.2698 36.3514ZM41.3787 37.9952L42.242 37.938L42.303 38.8604H41.3787V37.9952ZM41.1756 37.9952V38.8604H40.6146L40.3857 38.3483L41.1756 37.9952ZM40.5376 36.568V35.7028H41.0986L41.3275 36.2149L40.5376 36.568ZM39.9214 36.568H39.0562V35.7028H39.9214V36.568ZM39.9214 40.5736L39.7941 41.4294L39.0562 41.3197V40.5736H39.9214ZM40.5014 40.6599L40.6287 39.8041L41.3667 39.9138V40.6599H40.5014ZM40.5014 40.8331H41.3667V41.6983H40.5014V40.8331ZM37.751 40.8331V40.6599H39.4814V40.8331H37.751ZM38.4889 39.8041L39.069 39.7178L39.3235 41.4294L38.7435 41.5157L38.4889 39.8041ZM38.331 40.5736V36.568H40.0615V40.5736H38.331ZM39.1962 37.4332H38.5728V35.7028H39.1962V37.4332ZM39.3642 36.9177L38.7335 38.3449L37.1507 37.6454L37.7814 36.2182L39.3642 36.9177ZM37.9421 38.8604H37.739V37.13H37.9421V38.8604ZM36.8757 37.938L36.9845 36.2943L38.7112 36.4086L38.6023 38.0523L36.8757 37.938ZM37.8478 35.4862H41.2698V37.2166H37.8478V35.4862ZM42.1332 36.2943L42.242 37.938L40.5153 38.0523L40.4065 36.4086L42.1332 36.2943ZM41.3787 38.8604H41.1756V37.13H41.3787V38.8604ZM40.3857 38.3483L39.7477 36.9211L41.3275 36.2149L41.9654 37.6421L40.3857 38.3483ZM40.5376 37.4332H39.9214V35.7028H40.5376V37.4332ZM40.7866 36.568V40.5736H39.0562V36.568H40.7866ZM40.0487 39.7178L40.6287 39.8041L40.3742 41.5157L39.7941 41.4294L40.0487 39.7178ZM41.3667 40.6599V40.8331H39.6362V40.6599H41.3667ZM40.5014 41.6983H38.6162V39.9679H40.5014V41.6983Z" fill="black" mask="url(#path-9-inside-2_47_64)"/>
<path d="M43.599 42.9261C43.4604 42.9204 43.3804 42.8784 43.3241 42.824L43.599 42.9261ZM43.599 42.9261L43.6394 42.8923L43.5991 42.9261M43.599 42.9261L43.5991 42.9261M43.5991 42.9261C43.6097 42.9265 43.6206 42.9268 43.6319 42.9268C43.6457 42.9268 43.6589 42.9265 43.6715 42.9259C43.6603 42.9157 43.6496 42.9045 43.6394 42.8922C43.5764 42.8173 43.5449 42.7222 43.5449 42.6068L43.5991 42.9261Z" stroke="black" stroke-width="0.865216"/>
<mask id="path-12-inside-3_47_64" fill="white">
<path d="M50.2941 36.5677H49.0903L49.0109 37.9344C48.9768 38.5459 48.9383 38.9972 48.8948 39.2885C48.8512 39.58 48.7979 39.8236 48.7353 40.0197C48.6917 40.1467 48.6446 40.2545 48.5939 40.3441C48.5432 40.4333 48.4996 40.4984 48.4633 40.5387C48.4272 40.5789 48.4041 40.6052 48.3946 40.6167H50.2941V36.5677ZM51.6425 42.2605H51.4395L50.8017 40.8328H48.4669L47.8361 42.2605H47.6331L47.7421 40.6167H47.9738C48.0802 40.6167 48.1844 40.5618 48.2857 40.452C48.3871 40.3426 48.4765 40.184 48.5541 39.9764C48.6217 39.7861 48.6759 39.5495 48.7171 39.2669C48.7581 38.9843 48.7957 38.5403 48.8294 37.9344L48.8876 36.8963L48.2278 36.5244V36.3511H51.5265V36.5244L51.0191 36.6106V40.6167H51.5339L51.6425 42.2605Z"/>
</mask>
<path d="M50.2941 36.5677V35.7025H51.1593V36.5677H50.2941ZM49.0903 36.5677L48.2265 36.5175L48.2739 35.7025H49.0903V36.5677ZM49.0109 37.9344L48.147 37.8862L48.1472 37.8843L49.0109 37.9344ZM48.8948 39.2885L49.7506 39.416L49.7505 39.4165L48.8948 39.2885ZM48.7353 40.0197L49.5596 40.2829L49.5567 40.2918L49.5536 40.3008L48.7353 40.0197ZM48.5939 40.3441L49.347 40.7701L49.3461 40.7717L48.5939 40.3441ZM48.4633 40.5387L47.8196 39.9605L47.8211 39.9589L48.4633 40.5387ZM48.3946 40.6167V41.4819H46.5635L47.7261 40.0673L48.3946 40.6167ZM50.2941 40.6167H51.1593V41.4819H50.2941V40.6167ZM51.6425 42.2605L52.5059 42.2034L52.5668 43.1257H51.6425V42.2605ZM51.4395 42.2605V43.1257H50.8784L50.6495 42.6134L51.4395 42.2605ZM50.8017 40.8328V39.9676H51.3628L51.5916 40.4799L50.8017 40.8328ZM48.4669 40.8328L47.6754 40.4832L47.9032 39.9676H48.4669V40.8328ZM47.8361 42.2605L48.6276 42.6101L48.3998 43.1257H47.8361V42.2605ZM47.6331 42.2605V43.1257H46.7086L46.7697 42.2032L47.6331 42.2605ZM47.7421 40.6167L46.8787 40.5595L46.9323 39.7515H47.7421V40.6167ZM48.2857 40.452L47.6499 39.8652L47.6511 39.8639L48.2857 40.452ZM48.5541 39.9764L49.3694 40.2661L49.3646 40.2789L48.5541 39.9764ZM48.7171 39.2669L49.5733 39.3911L49.5733 39.3917L48.7171 39.2669ZM48.8294 37.9344L47.9656 37.8863L47.9656 37.886L48.8294 37.9344ZM48.8876 36.8963L49.3125 36.1426L49.7815 36.4071L49.7514 36.9447L48.8876 36.8963ZM48.2278 36.5244L47.8029 37.278L47.3626 37.0298V36.5244H48.2278ZM48.2278 36.3511H47.3626V35.4859H48.2278V36.3511ZM51.5265 36.3511V35.4859H52.3917V36.3511H51.5265ZM51.5265 36.5244H52.3917V37.2549L51.6715 37.3773L51.5265 36.5244ZM51.0191 36.6106H50.1539V35.8801L50.8741 35.7576L51.0191 36.6106ZM51.0191 40.6167V41.4819H50.1539V40.6167H51.0191ZM51.5339 40.6167V39.7515H52.3438L52.3973 40.5597L51.5339 40.6167ZM50.2941 37.4329H49.0903V35.7025H50.2941V37.4329ZM49.9541 36.6179L49.8747 37.9846L48.1472 37.8843L48.2265 36.5175L49.9541 36.6179ZM49.8748 37.9826C49.8405 38.5984 49.8002 39.083 49.7506 39.416L48.0391 39.1609C48.0763 38.9114 48.1132 38.4934 48.147 37.8862L49.8748 37.9826ZM49.7505 39.4165C49.7027 39.7365 49.6407 40.0287 49.5596 40.2829L47.9111 39.7566C47.9552 39.6186 47.9998 39.4234 48.0391 39.1605L49.7505 39.4165ZM49.5536 40.3008C49.4974 40.4646 49.4299 40.6235 49.347 40.7701L47.8408 39.9182C47.8593 39.8856 47.8861 39.8287 47.917 39.7387L49.5536 40.3008ZM49.3461 40.7717C49.2875 40.8748 49.2066 41.0065 49.1055 41.1185L47.8211 39.9589C47.8106 39.9705 47.8044 39.9785 47.8028 39.9807C47.8009 39.9832 47.8015 39.9825 47.8047 39.9777C47.8115 39.9676 47.8238 39.9482 47.8417 39.9166L49.3461 40.7717ZM49.107 41.1168C49.0899 41.1358 49.0771 41.1502 49.0682 41.1604C49.0637 41.1654 49.0609 41.1687 49.0593 41.1705C49.0573 41.1729 49.0591 41.1708 49.063 41.1661L47.7261 40.0673C47.7502 40.0381 47.7871 39.9967 47.8196 39.9605L49.107 41.1168ZM48.3946 39.7515H50.2941V41.4819H48.3946V39.7515ZM49.4289 40.6167V36.5677H51.1593V40.6167H49.4289ZM51.6425 43.1257H51.4395V41.3953H51.6425V43.1257ZM50.6495 42.6134L50.0117 41.1857L51.5916 40.4799L52.2294 41.9076L50.6495 42.6134ZM50.8017 41.698H48.4669V39.9676H50.8017V41.698ZM49.2583 41.1825L48.6276 42.6101L47.0447 41.9108L47.6754 40.4832L49.2583 41.1825ZM47.8361 43.1257H47.6331V41.3953H47.8361V43.1257ZM46.7697 42.2032L46.8787 40.5595L48.6054 40.674L48.4964 42.3177L46.7697 42.2032ZM47.7421 39.7515H47.9738V41.4819H47.7421V39.7515ZM47.9738 39.7515C47.8719 39.7515 47.7869 39.7792 47.7277 39.8104C47.6999 39.8251 47.6801 39.8393 47.6679 39.8491C47.6558 39.8588 47.65 39.865 47.6499 39.8652L48.9216 41.0387C48.7239 41.2529 48.406 41.4819 47.9738 41.4819V39.7515ZM47.6511 39.8639C47.6472 39.8681 47.6567 39.8588 47.6753 39.8259C47.6937 39.7933 47.7172 39.7441 47.7435 39.6738L49.3646 40.2789C49.2651 40.5456 49.1263 40.8178 48.9204 41.04L47.6511 39.8639ZM47.7388 39.6867C47.7813 39.5671 47.8248 39.3902 47.8609 39.1421L49.5733 39.3917C49.527 39.7088 49.4621 40.005 49.3693 40.2661L47.7388 39.6867ZM47.8608 39.1427C47.896 38.9 47.9321 38.4879 47.9656 37.8863L49.6933 37.9825C49.6594 38.5927 49.6201 39.0686 49.5733 39.3911L47.8608 39.1427ZM47.9656 37.886L48.0237 36.8479L49.7514 36.9447L49.6933 37.9828L47.9656 37.886ZM48.4626 37.65L47.8029 37.278L48.6527 35.7707L49.3125 36.1426L48.4626 37.65ZM47.3626 36.5244V36.3511H49.093V36.5244H47.3626ZM48.2278 35.4859H51.5265V37.2164H48.2278V35.4859ZM52.3917 36.3511V36.5244H50.6613V36.3511H52.3917ZM51.6715 37.3773L51.1641 37.4636L50.8741 35.7576L51.3814 35.6714L51.6715 37.3773ZM51.8843 36.6106V40.6167H50.1539V36.6106H51.8843ZM51.0191 39.7515H51.5339V41.4819H51.0191V39.7515ZM52.3973 40.5597L52.5059 42.2034L50.7792 42.3175L50.6706 40.6738L52.3973 40.5597Z" fill="black" mask="url(#path-12-inside-3_47_64)"/>
<mask id="path-14-inside-4_47_64" fill="white">
<path d="M53.0378 40.8331V40.6599L53.5456 40.5736V36.6109L53.0378 36.5246V36.3514H54.7056V36.5246L54.2704 36.6109V39.9767L56.1049 36.7841V36.6109L55.6697 36.5246V36.3514H57.3374V36.5246L56.8297 36.6109V40.5736L57.3374 40.6599V40.8331H55.6697V40.6599L56.1049 40.5736V37.1474L54.2704 40.3486V40.5736L54.7056 40.6599V40.8331H53.0378Z"/>
</mask>
<path d="M53.0378 40.8331V41.6983H52.1726V40.8331H53.0378ZM53.0378 40.6599H52.1726V39.9293L52.8929 39.8069L53.0378 40.6599ZM53.5456 40.5736H54.4108V41.3042L53.6905 41.4266L53.5456 40.5736ZM53.5456 36.6109L53.6905 35.7579L54.4108 35.8803V36.6109H53.5456ZM53.0378 36.5246L52.8929 37.3776L52.1726 37.2552V36.5246H53.0378ZM53.0378 36.3514H52.1726V35.4862H53.0378V36.3514ZM54.7056 36.3514V35.4862H55.5708V36.3514H54.7056ZM54.7056 36.5246H55.5708V37.2352L54.8738 37.3733L54.7056 36.5246ZM54.2704 36.6109H53.4052V35.9003L54.1022 35.7622L54.2704 36.6109ZM54.2704 39.9767L55.0206 40.4077L53.4052 43.2189V39.9767H54.2704ZM56.1049 36.7841H56.9701V37.015L56.8551 37.2152L56.1049 36.7841ZM56.1049 36.6109L56.2731 35.7622L56.9701 35.9003V36.6109H56.1049ZM55.6697 36.5246L55.5014 37.3733L54.8044 37.2352V36.5246H55.6697ZM55.6697 36.3514H54.8044V35.4862H55.6697V36.3514ZM57.3374 36.3514V35.4862H58.2027V36.3514H57.3374ZM57.3374 36.5246H58.2027V37.2552L57.4824 37.3776L57.3374 36.5246ZM56.8297 36.6109H55.9645V35.8803L56.6848 35.7579L56.8297 36.6109ZM56.8297 40.5736L56.6848 41.4266L55.9645 41.3042V40.5736H56.8297ZM57.3374 40.6599L57.4824 39.8069L58.2027 39.9293V40.6599H57.3374ZM57.3374 40.8331H58.2027V41.6983H57.3374V40.8331ZM55.6697 40.8331V41.6983H54.8044V40.8331H55.6697ZM55.6697 40.6599H54.8044V39.9493L55.5014 39.8112L55.6697 40.6599ZM56.1049 40.5736H56.9701V41.2842L56.2731 41.4223L56.1049 40.5736ZM56.1049 37.1474L55.3542 36.7172L56.9701 33.8975V37.1474H56.1049ZM54.2704 40.3486H53.4052V40.1183L53.5197 39.9184L54.2704 40.3486ZM54.2704 40.5736L54.1022 41.4223L53.4052 41.2842V40.5736H54.2704ZM54.7056 40.6599L54.8738 39.8112L55.5708 39.9493V40.6599H54.7056ZM54.7056 40.8331H55.5708V41.6983H54.7056V40.8331ZM52.1726 40.8331V40.6599H53.9031V40.8331H52.1726ZM52.8929 39.8069L53.4006 39.7206L53.6905 41.4266L53.1828 41.5129L52.8929 39.8069ZM52.6804 40.5736V36.6109H54.4108V40.5736H52.6804ZM53.4006 37.4639L52.8929 37.3776L53.1828 35.6716L53.6905 35.7579L53.4006 37.4639ZM52.1726 36.5246V36.3514H53.9031V36.5246H52.1726ZM53.0378 35.4862H54.7056V37.2166H53.0378V35.4862ZM55.5708 36.3514V36.5246H53.8404V36.3514H55.5708ZM54.8738 37.3733L54.4386 37.4596L54.1022 35.7622L54.5374 35.6759L54.8738 37.3733ZM55.1356 36.6109V39.9767H53.4052V36.6109H55.1356ZM53.5202 39.5456L55.3547 36.353L56.8551 37.2152L55.0206 40.4077L53.5202 39.5456ZM55.2397 36.7841V36.6109H56.9701V36.7841H55.2397ZM55.9367 37.4596L55.5014 37.3733L55.8379 35.6759L56.2731 35.7622L55.9367 37.4596ZM54.8044 36.5246V36.3514H56.5349V36.5246H54.8044ZM55.6697 35.4862H57.3374V37.2166H55.6697V35.4862ZM58.2027 36.3514V36.5246H56.4722V36.3514H58.2027ZM57.4824 37.3776L56.9746 37.4639L56.6848 35.7579L57.1925 35.6716L57.4824 37.3776ZM57.6949 36.6109V40.5736H55.9645V36.6109H57.6949ZM56.9746 39.7206L57.4824 39.8069L57.1925 41.5129L56.6848 41.4266L56.9746 39.7206ZM58.2027 40.6599V40.8331H56.4722V40.6599H58.2027ZM57.3374 41.6983H55.6697V39.9679H57.3374V41.6983ZM54.8044 40.8331V40.6599H56.5349V40.8331H54.8044ZM55.5014 39.8112L55.9367 39.7249L56.2731 41.4223L55.8379 41.5086L55.5014 39.8112ZM55.2397 40.5736V37.1474H56.9701V40.5736H55.2397ZM56.8556 37.5776L55.0211 40.7788L53.5197 39.9184L55.3542 36.7172L56.8556 37.5776ZM55.1356 40.3486V40.5736H53.4052V40.3486H55.1356ZM54.4386 39.7249L54.8738 39.8112L54.5374 41.5086L54.1022 41.4223L54.4386 39.7249ZM55.5708 40.6599V40.8331H53.8404V40.6599H55.5708ZM54.7056 41.6983H53.0378V39.9679H54.7056V41.6983Z" fill="black" mask="url(#path-14-inside-4_47_64)"/>
<mask id="path-16-inside-5_47_64" fill="white">
<path d="M61.5698 38.5579V36.5682H60.9607C60.6805 36.5682 60.4736 36.6431 60.3406 36.7929C60.2078 36.943 60.1414 37.1823 60.1414 37.5111V37.6234C60.1414 37.9464 60.2091 38.183 60.3443 38.3329C60.4796 38.4829 60.6657 38.5579 60.9026 38.5579H61.5698ZM59.0393 40.8202C58.9136 40.7541 58.8049 40.6574 58.7129 40.5305L58.8219 40.4006C58.9089 40.5044 58.9933 40.5562 59.0755 40.5562C59.1481 40.5562 59.2025 40.5249 59.2389 40.4611C59.275 40.3979 59.3099 40.271 59.344 40.0807L59.4237 39.5788C59.4671 39.2963 59.5469 39.0857 59.6628 38.9472C59.7788 38.8087 59.9674 38.7166 60.2284 38.6701V38.627C59.9722 38.575 59.7632 38.4627 59.6011 38.2895C59.4394 38.1165 59.3583 37.8628 59.3583 37.5282C59.3583 37.1418 59.4671 36.8492 59.6846 36.6502C59.902 36.4512 60.2549 36.3516 60.7433 36.3516H62.8168V36.5335L62.2948 36.62V40.5651L62.8168 40.6601V40.8333H61.0477V40.6601L61.5698 40.5651V38.774H60.9026C60.6948 38.774 60.534 38.8289 60.4205 38.9387C60.3069 39.0481 60.2331 39.2298 60.1994 39.4837L60.0908 40.2192C60.052 40.4729 59.9819 40.653 59.8804 40.7597C59.7788 40.8664 59.6218 40.9198 59.409 40.9198C59.2883 40.9198 59.1651 40.8866 59.0393 40.8202Z"/>
</mask>
<path d="M61.5698 38.5579H62.435V39.4231H61.5698V38.5579ZM61.5698 36.5682V35.7029H62.435V36.5682H61.5698ZM60.3406 36.7929L59.6928 36.2195L59.6936 36.2185L60.3406 36.7929ZM60.3443 38.3329L60.9866 37.7531L60.987 37.7536L60.3443 38.3329ZM58.7129 40.5305L58.0124 41.0383L57.616 40.4915L58.0502 39.9742L58.7129 40.5305ZM58.8219 40.4006L58.1592 39.8443L58.8225 39.0542L59.485 39.8449L58.8219 40.4006ZM59.2389 40.4611L58.487 40.033L58.488 40.0312L59.2389 40.4611ZM59.344 40.0807L60.1985 40.2165L60.1971 40.2249L60.1956 40.2332L59.344 40.0807ZM59.4237 39.5788L60.2789 39.7102L60.2782 39.7146L59.4237 39.5788ZM59.6628 38.9472L58.9992 38.392L58.9996 38.3915L59.6628 38.9472ZM60.2284 38.6701H61.0937V39.3949L60.3801 39.522L60.2284 38.6701ZM60.2284 38.627L60.4006 37.7791L61.0937 37.9198V38.627H60.2284ZM59.6011 38.2895L58.9694 38.8807L58.9691 38.8804L59.6011 38.2895ZM62.8168 36.3516V35.4864H63.6821V36.3516H62.8168ZM62.8168 36.5335H63.6821V37.2671L62.9583 37.3871L62.8168 36.5335ZM62.2948 36.62H61.4296V35.8863L62.1534 35.7664L62.2948 36.62ZM62.2948 40.5651L62.14 41.4164L61.4296 41.2872V40.5651H62.2948ZM62.8168 40.6601L62.9716 39.8088L63.6821 39.938V40.6601H62.8168ZM62.8168 40.8333H63.6821V41.6985H62.8168V40.8333ZM61.0477 40.8333V41.6985H60.1825V40.8333H61.0477ZM61.0477 40.6601H60.1825V39.938L60.8929 39.8088L61.0477 40.6601ZM61.5698 40.5651H62.435V41.2872L61.7246 41.4164L61.5698 40.5651ZM61.5698 38.774V37.9088H62.435V38.774H61.5698ZM60.4205 38.9387L61.0223 39.5604L61.0205 39.5621L60.4205 38.9387ZM60.1994 39.4837L61.0572 39.5976L61.0553 39.6101L60.1994 39.4837ZM60.0908 40.2192L60.9467 40.3456L60.946 40.3498L60.0908 40.2192ZM60.7046 38.5579V36.5682H62.435V38.5579H60.7046ZM61.5698 37.4334H60.9607V35.7029H61.5698V37.4334ZM60.9607 37.4334C60.8948 37.4334 60.8772 37.4425 60.8903 37.4378C60.8978 37.4351 60.9127 37.4287 60.9316 37.4162C60.9507 37.4035 60.9701 37.3871 60.9876 37.3673L59.6936 36.2185C60.0482 35.819 60.5353 35.7029 60.9607 35.7029V37.4334ZM60.9885 37.3664C61.0275 37.3223 61.0312 37.2936 61.025 37.3162C61.0181 37.3408 61.0066 37.4012 61.0066 37.5111H59.2762C59.2762 37.0977 59.354 36.6021 59.6928 36.2195L60.9885 37.3664ZM61.0066 37.5111V37.6234H59.2762V37.5111H61.0066ZM61.0066 37.6234C61.0066 37.7281 61.018 37.7841 61.024 37.8052C61.0294 37.8238 61.0247 37.7953 60.9866 37.7531L59.7021 38.9126C59.3585 38.5319 59.2762 38.0386 59.2762 37.6234H61.0066ZM60.987 37.7536C60.9784 37.744 60.9665 37.733 60.9516 37.7226C60.9366 37.7121 60.9218 37.7044 60.9087 37.6991C60.8822 37.6884 60.8752 37.6926 60.9026 37.6926V39.4231C60.4674 39.4231 60.0299 39.2763 59.7017 38.9121L60.987 37.7536ZM60.9026 37.6926H61.5698V39.4231H60.9026V37.6926ZM58.6371 41.5862C58.3803 41.4514 58.1735 41.2606 58.0124 41.0383L59.4134 40.0226C59.4256 40.0395 59.4343 40.0479 59.438 40.0513C59.4415 40.0544 59.4425 40.0546 59.4415 40.0541L58.6371 41.5862ZM58.0502 39.9742L58.1592 39.8443L59.4846 40.9569L59.3756 41.0867L58.0502 39.9742ZM59.485 39.8449C59.489 39.8497 59.4636 39.8171 59.4031 39.78C59.3373 39.7396 59.2243 39.691 59.0755 39.691V41.4215C58.6104 41.4215 58.3059 41.132 58.1587 40.9563L59.485 39.8449ZM59.0755 39.691C58.9843 39.691 58.8611 39.7119 58.7362 39.7844C58.6113 39.857 58.5322 39.9537 58.487 40.033L59.9908 40.8892C59.9093 41.0323 59.7848 41.1766 59.6054 41.2808C59.426 41.3849 59.2394 41.4215 59.0755 41.4215V39.691ZM58.488 40.0312C58.4667 40.0685 58.4569 40.0945 58.4553 40.0987C58.4531 40.1049 58.4543 40.1025 58.4581 40.0885C58.4661 40.0597 58.4779 40.0084 58.4923 39.9281L60.1956 40.2332C60.1642 40.4085 60.1107 40.6797 59.9898 40.8909L58.488 40.0312ZM58.4895 39.9449L58.5692 39.4431L60.2782 39.7146L60.1985 40.2165L58.4895 39.9449ZM58.5685 39.4475C58.6232 39.0913 58.7392 38.7027 58.9992 38.392L60.3264 39.5024C60.3436 39.4817 60.3389 39.4792 60.3252 39.5153C60.3116 39.5513 60.2937 39.6136 60.2789 39.7102L58.5685 39.4475ZM58.9996 38.3915C59.2958 38.0381 59.708 37.884 60.0768 37.8183L60.3801 39.522C60.3088 39.5347 60.2772 39.5486 60.2715 39.5513C60.2683 39.5529 60.2945 39.5404 60.3259 39.5029L58.9996 38.3915ZM59.3632 38.6701V38.627H61.0937V38.6701H59.3632ZM60.0563 39.4749C59.6434 39.3911 59.2672 39.1989 58.9694 38.8807L60.2328 37.6983C60.2592 37.7265 60.3011 37.7589 60.4006 37.7791L60.0563 39.4749ZM58.9691 38.8804C58.6056 38.4916 58.4931 37.9921 58.4931 37.5282H60.2235C60.2235 37.628 60.2359 37.6831 60.2433 37.7065C60.2497 37.7263 60.2501 37.7168 60.2331 37.6986L58.9691 38.8804ZM58.4931 37.5282C58.4931 36.9783 58.6527 36.4216 59.1004 36.0119L60.2687 37.2885C60.2672 37.2898 60.2604 37.2949 60.2509 37.3203C60.2397 37.3504 60.2235 37.4144 60.2235 37.5282H58.4931ZM59.1004 36.0119C59.5538 35.597 60.1714 35.4864 60.7433 35.4864V37.2168C60.554 37.2168 60.4268 37.2366 60.3472 37.259C60.2698 37.2808 60.2565 37.2997 60.2687 37.2885L59.1004 36.0119ZM60.7433 35.4864H62.8168V37.2168H60.7433V35.4864ZM63.6821 36.3516V36.5335H61.9516V36.3516H63.6821ZM62.9583 37.3871L62.4362 37.4735L62.1534 35.7664L62.6754 35.6799L62.9583 37.3871ZM63.16 36.62V40.5651H61.4296V36.62H63.16ZM62.4496 39.7139L62.9716 39.8088L62.662 41.5113L62.14 41.4164L62.4496 39.7139ZM63.6821 40.6601V40.8333H61.9516V40.6601H63.6821ZM62.8168 41.6985H61.0477V39.9681H62.8168V41.6985ZM60.1825 40.8333V40.6601H61.9129V40.8333H60.1825ZM60.8929 39.8088L61.415 39.7139L61.7246 41.4164L61.2025 41.5113L60.8929 39.8088ZM60.7046 40.5651V38.774H62.435V40.5651H60.7046ZM61.5698 39.6392H60.9026V37.9088H61.5698V39.6392ZM60.9026 39.6392C60.8734 39.6392 60.8787 39.6432 60.906 39.6339C60.9368 39.6234 60.9807 39.6007 61.0223 39.5604L59.8188 38.3171C60.1397 38.0065 60.5437 37.9088 60.9026 37.9088V39.6392ZM61.0205 39.5621C61.0695 39.515 61.0837 39.4775 61.0817 39.4824C61.0809 39.4844 61.0771 39.4943 61.0722 39.5141C61.0673 39.5338 61.0619 39.5613 61.0571 39.5976L59.3417 39.3698C59.3863 39.0336 59.5017 38.6222 59.8206 38.3153L61.0205 39.5621ZM61.0553 39.6101L60.9467 40.3456L59.2348 40.0928L59.3434 39.3573L61.0553 39.6101ZM60.946 40.3498C60.8982 40.6633 60.7919 41.0569 60.5072 41.3561L59.2536 40.1633C59.2295 40.1886 59.2152 40.2099 59.2082 40.2216C59.2012 40.2333 59.2002 40.2375 59.2028 40.2308C59.2054 40.2242 59.2105 40.2096 59.2166 40.1851C59.2227 40.1608 59.2293 40.1289 59.2355 40.0885L60.946 40.3498ZM60.5072 41.3561C60.1812 41.6987 59.7524 41.785 59.409 41.785V40.0546C59.4461 40.0546 59.4404 40.0495 59.4082 40.0605C59.3711 40.0731 59.3109 40.1031 59.2536 40.1633L60.5072 41.3561ZM59.409 41.785C59.1245 41.785 58.8635 41.7059 58.635 41.5851L59.4437 40.0552C59.4559 40.0617 59.4582 40.0614 59.4511 40.0595C59.4433 40.0574 59.4287 40.0546 59.409 40.0546V41.785Z" fill="black" mask="url(#path-16-inside-5_47_64)"/>
<mask id="path-18-inside-6_47_64" fill="white">
<path d="M66.855 40.8331V40.6599L67.4059 40.4004V36.6024L66.8984 36.5246V36.3514H68.3049L69.4506 39.5873L70.5887 36.3514H71.923V36.5246L71.4152 36.6109V40.5736L71.923 40.6599V40.8331H70.2552V40.6599L70.6904 40.5736V36.6371L69.1894 40.8331H69.1024L67.5872 36.6371V40.4004L68.1382 40.6599V40.8331H66.855Z"/>
</mask>
<path d="M66.855 40.8331V41.6983H65.9898V40.8331H66.855ZM66.855 40.6599H65.9898V40.111L66.4863 39.8771L66.855 40.6599ZM67.4059 40.4004H68.2712V40.9493L67.7746 41.1832L67.4059 40.4004ZM67.4059 36.6024L67.5371 35.7472L68.2712 35.8598V36.6024H67.4059ZM66.8984 36.5246L66.7673 37.3798L66.0332 37.2673V36.5246H66.8984ZM66.8984 36.3514H66.0332V35.4862H66.8984V36.3514ZM68.3049 36.3514V35.4862H68.9165L69.1206 36.0626L68.3049 36.3514ZM69.4506 39.5873L70.2669 39.8744L69.4534 42.1874L68.635 39.8761L69.4506 39.5873ZM70.5887 36.3514L69.7725 36.0644L69.9758 35.4862H70.5887V36.3514ZM71.923 36.3514V35.4862H72.7882V36.3514H71.923ZM71.923 36.5246H72.7882V37.2552L72.0679 37.3776L71.923 36.5246ZM71.4152 36.6109H70.55V35.8803L71.2703 35.7579L71.4152 36.6109ZM71.4152 40.5736L71.2703 41.4266L70.55 41.3042V40.5736H71.4152ZM71.923 40.6599L72.0679 39.8069L72.7882 39.9293V40.6599H71.923ZM71.923 40.8331H72.7882V41.6983H71.923V40.8331ZM70.2552 40.8331V41.6983H69.39V40.8331H70.2552ZM70.2552 40.6599H69.39V39.9493L70.087 39.8112L70.2552 40.6599ZM70.6904 40.5736H71.5557V41.2842L70.8587 41.4223L70.6904 40.5736ZM70.6904 36.6371L69.8758 36.3457L71.5557 36.6371H70.6904ZM69.1894 40.8331L70.0041 41.1245L69.7988 41.6983H69.1894V40.8331ZM69.1024 40.8331V41.6983H68.4949L68.2886 41.127L69.1024 40.8331ZM67.5872 36.6371H66.722L68.401 36.3433L67.5872 36.6371ZM67.5872 40.4004L67.2186 41.1832L66.722 40.9493V40.4004H67.5872ZM68.1382 40.6599L68.5068 39.8771L69.0034 40.111V40.6599H68.1382ZM68.1382 40.8331H69.0034V41.6983H68.1382V40.8331ZM65.9898 40.8331V40.6599H67.7202V40.8331H65.9898ZM66.4863 39.8771L67.0373 39.6177L67.7746 41.1832L67.2236 41.4427L66.4863 39.8771ZM66.5407 40.4004V36.6024H68.2712V40.4004H66.5407ZM67.2748 37.4577L66.7673 37.3798L67.0295 35.6694L67.5371 35.7472L67.2748 37.4577ZM66.0332 36.5246V36.3514H67.7636V36.5246H66.0332ZM66.8984 35.4862H68.3049V37.2166H66.8984V35.4862ZM69.1206 36.0626L70.2663 39.2986L68.635 39.8761L67.4893 36.6402L69.1206 36.0626ZM68.6344 39.3003L69.7725 36.0644L71.4049 36.6385L70.2669 39.8744L68.6344 39.3003ZM70.5887 35.4862H71.923V37.2166H70.5887V35.4862ZM72.7882 36.3514V36.5246H71.0578V36.3514H72.7882ZM72.0679 37.3776L71.5602 37.4639L71.2703 35.7579L71.778 35.6716L72.0679 37.3776ZM72.2805 36.6109V40.5736H70.55V36.6109H72.2805ZM71.5602 39.7206L72.0679 39.8069L71.778 41.5129L71.2703 41.4266L71.5602 39.7206ZM72.7882 40.6599V40.8331H71.0578V40.6599H72.7882ZM71.923 41.6983H70.2552V39.9679H71.923V41.6983ZM69.39 40.8331V40.6599H71.1204V40.8331H69.39ZM70.087 39.8112L70.5222 39.7249L70.8587 41.4223L70.4234 41.5086L70.087 39.8112ZM69.8252 40.5736V36.6371H71.5557V40.5736H69.8252ZM71.5051 36.9286L70.0041 41.1245L68.3748 40.5417L69.8758 36.3457L71.5051 36.9286ZM69.1894 41.6983H69.1024V39.9679H69.1894V41.6983ZM68.2886 41.127L66.7734 36.931L68.401 36.3433L69.9162 40.5392L68.2886 41.127ZM68.4524 36.6371V40.4004H66.722V36.6371H68.4524ZM67.9559 39.6177L68.5068 39.8771L67.7696 41.4427L67.2186 41.1832L67.9559 39.6177ZM69.0034 40.6599V40.8331H67.273V40.6599H69.0034ZM68.1382 41.6983H66.855V39.9679H68.1382V41.6983Z" fill="black" mask="url(#path-18-inside-6_47_64)"/>
<mask id="path-20-inside-7_47_64" fill="white">
<path d="M75.2671 40.4006C75.4048 40.3083 75.522 40.1743 75.6187 39.9984C75.7154 39.8223 75.7733 39.6106 75.7927 39.3625V38.4627H75.3068C74.9105 38.4627 74.6146 38.5681 74.4188 38.7786C74.2231 38.989 74.1251 39.2847 74.1251 39.6651C74.1251 39.9824 74.1879 40.2076 74.3135 40.3401C74.4393 40.4729 74.623 40.5391 74.8648 40.5391C74.9953 40.5391 75.1292 40.4931 75.2671 40.4006ZM73.7048 40.6298C73.5065 40.4368 73.4072 40.1498 73.4072 39.7689C73.4072 39.2269 73.5982 38.842 73.9802 38.6143C74.3618 38.3862 74.8041 38.2724 75.3068 38.2724H75.7927V37.6063C75.7927 37.3063 75.7648 37.074 75.7094 36.9097C75.6537 36.7454 75.568 36.6302 75.4519 36.5637C75.3359 36.4975 75.1788 36.4641 74.9805 36.4641C74.7534 36.4641 74.5842 36.5175 74.4732 36.6242C74.3618 36.7309 74.3064 36.8739 74.3064 37.0524C74.3064 37.2198 74.3741 37.3294 74.5093 37.3812C74.5093 37.5253 74.4635 37.6523 74.3718 37.7621C74.2798 37.8715 74.171 37.9262 74.0454 37.9262C73.9099 37.9262 73.8011 37.8817 73.7191 37.7924C73.637 37.703 73.596 37.566 73.596 37.3812C73.596 37.0469 73.7361 36.7787 74.0163 36.5768C74.2967 36.3747 74.647 36.274 75.0676 36.274C76.0342 36.274 76.5179 36.7758 76.5179 37.7792V40.2534C76.5179 40.3804 76.5406 40.4771 76.5866 40.5436C76.6323 40.6096 76.699 40.643 76.786 40.643C76.8682 40.643 76.9334 40.6096 76.9818 40.5436C77.0299 40.4771 77.0543 40.3864 77.0543 40.271H77.2064C77.2064 40.4729 77.152 40.6314 77.0433 40.7466C76.9345 40.862 76.7834 40.9198 76.5902 40.9198C76.3677 40.9198 76.1806 40.8433 76.0282 40.6905C75.8762 40.5376 75.7974 40.2999 75.7927 39.9768C75.6766 40.271 75.4989 40.5018 75.2598 40.669C75.0206 40.8362 74.7558 40.9198 74.4659 40.9198C74.1566 40.9198 73.9028 40.8233 73.7048 40.6298Z"/>
</mask>
<path d="M75.6187 39.9984L76.3771 40.4149L76.3769 40.4153L75.6187 39.9984ZM75.7927 39.3625H76.6579V39.3962L76.6553 39.4299L75.7927 39.3625ZM75.7927 38.4627V37.5975H76.6579V38.4627H75.7927ZM74.4188 38.7786L75.0523 39.3679L75.0523 39.3679L74.4188 38.7786ZM74.3135 40.3401L74.9415 39.745L74.9416 39.745L74.3135 40.3401ZM73.9802 38.6143L74.4241 39.357L74.4232 39.3575L73.9802 38.6143ZM75.7927 38.2724H76.6579V39.1376H75.7927V38.2724ZM75.7094 36.9097L76.5288 36.6318L76.5294 36.6335L75.7094 36.9097ZM75.4519 36.5637L75.8808 35.8123L75.8819 35.8129L75.4519 36.5637ZM74.4732 36.6242L75.0727 37.248L75.0717 37.249L74.4732 36.6242ZM74.5093 37.3812L74.8188 36.5733L75.3745 36.7861V37.3812H74.5093ZM74.3718 37.7621L75.0361 38.3165L75.0339 38.3192L74.3718 37.7621ZM73.7191 37.7924L74.3561 37.2068L74.3568 37.2075L73.7191 37.7924ZM74.0163 36.5768L74.5222 37.2787L74.5221 37.2788L74.0163 36.5768ZM76.5866 40.5436L77.298 40.0511L77.2984 40.0516L76.5866 40.5436ZM76.9818 40.5436L77.683 41.0506L77.6795 41.0554L76.9818 40.5436ZM77.0543 40.271H76.1891V39.4058H77.0543V40.271ZM77.2064 40.271V39.4058H78.0716V40.271H77.2064ZM77.0433 40.7466L76.4138 40.153L76.4139 40.1529L77.0433 40.7466ZM76.0282 40.6905L75.4158 41.3017L75.4146 41.3005L76.0282 40.6905ZM75.7927 39.9768L74.9879 39.6592L76.6578 39.9644L75.7927 39.9768ZM75.2598 40.669L75.7557 41.378L75.7555 41.3782L75.2598 40.669ZM74.7855 39.6819C74.7863 39.6813 74.8166 39.6614 74.8605 39.5815L76.3769 40.4153C76.2274 40.6871 76.0233 40.9354 75.7488 41.1194L74.7855 39.6819ZM74.8603 39.5819C74.8856 39.5359 74.9181 39.4492 74.9301 39.2951L76.6553 39.4299C76.6286 39.7721 76.5452 40.1087 76.3771 40.4149L74.8603 39.5819ZM74.9275 39.3625V38.4627H76.6579V39.3625H74.9275ZM75.7927 39.3279H75.3068V37.5975H75.7927V39.3279ZM75.3068 39.3279C75.1828 39.3279 75.1119 39.3447 75.0777 39.3569C75.0484 39.3673 75.0471 39.3735 75.0523 39.3679L73.7852 38.1894C74.1991 37.7444 74.7636 37.5975 75.3068 37.5975V39.3279ZM75.0523 39.3679C75.0485 39.372 74.9903 39.4309 74.9903 39.6651H73.2599C73.2599 39.1385 73.3978 38.606 73.7852 38.1894L75.0523 39.3679ZM74.9903 39.6651C74.9903 39.7164 74.9929 39.7563 74.9964 39.7863C74.9999 39.8165 75.0039 39.8333 75.0056 39.8394C75.0095 39.8532 74.9991 39.8058 74.9415 39.745L73.6855 40.9353C73.3285 40.5586 73.2599 40.0531 73.2599 39.6651H74.9903ZM74.9416 39.745C74.9249 39.7274 74.9061 39.712 74.8867 39.6995C74.8674 39.6871 74.8508 39.6797 74.8393 39.6756C74.8176 39.6677 74.821 39.6739 74.8648 39.6739V41.4043C74.4658 41.4043 74.0227 41.2911 73.6854 40.9352L74.9416 39.745ZM74.8648 39.6739C74.8264 39.6739 74.7975 39.681 74.7816 39.6864C74.767 39.6914 74.7682 39.6935 74.7851 39.6821L75.7491 41.1191C75.5069 41.2816 75.2078 41.4043 74.8648 41.4043V39.6739ZM73.1013 41.2498C72.6807 40.8404 72.542 40.2935 72.542 39.7689H74.2724C74.2724 39.8865 74.288 39.9543 74.2994 39.9871C74.3092 40.0156 74.315 40.0164 74.3083 40.0099L73.1013 41.2498ZM72.542 39.7689C72.542 39 72.8327 38.291 73.5372 37.8711L74.4232 39.3575C74.3637 39.393 74.2724 39.4538 74.2724 39.7689H72.542ZM73.5362 37.8717C74.0691 37.5531 74.669 37.4072 75.3068 37.4072V39.1376C74.9392 39.1376 74.6544 39.2193 74.4241 39.357L73.5362 37.8717ZM75.3068 37.4072H75.7927V39.1376H75.3068V37.4072ZM74.9275 38.2724V37.6063H76.6579V38.2724H74.9275ZM74.9275 37.6063C74.9275 37.343 74.9008 37.2196 74.8895 37.1858L76.5294 36.6335C76.6287 36.9284 76.6579 37.2696 76.6579 37.6063H74.9275ZM74.89 37.1875C74.8854 37.1738 74.8883 37.1884 74.9092 37.2166C74.932 37.2472 74.9693 37.2844 75.0219 37.3145L75.8819 35.8129C76.2302 36.0123 76.426 36.3285 76.5288 36.6318L74.89 37.1875ZM75.023 37.3151C75.0565 37.3342 75.0757 37.3372 75.068 37.3355C75.0599 37.3338 75.0327 37.3293 74.9805 37.3293V35.5989C75.2627 35.5989 75.5865 35.6443 75.8808 35.8123L75.023 37.3151ZM74.9805 37.3293C74.9318 37.3293 74.9242 37.3354 74.9437 37.3292C74.9668 37.3219 75.0186 37.3001 75.0727 37.248L73.8737 36.0004C74.2084 35.6787 74.6349 35.5989 74.9805 35.5989V37.3293ZM75.0717 37.249C75.1068 37.2153 75.1363 37.1716 75.1544 37.1249C75.1715 37.081 75.1716 37.0525 75.1716 37.0524H73.4412C73.4412 36.6804 73.5645 36.2965 73.8747 35.9994L75.0717 37.249ZM75.1716 37.0524C75.1716 37.0229 75.1657 36.9229 75.0935 36.8058C75.0153 36.6792 74.9051 36.6063 74.8188 36.5733L74.1999 38.1892C73.9782 38.1044 73.7666 37.9508 73.6208 37.7145C73.481 37.4879 73.4412 37.2494 73.4412 37.0524H75.1716ZM75.3745 37.3812C75.3745 37.7264 75.2586 38.0499 75.0361 38.3165L73.7076 37.2077C73.6926 37.2256 73.6745 37.2537 73.6611 37.2907C73.6478 37.3276 73.6441 37.3599 73.6441 37.3812H75.3745ZM75.0339 38.3192C74.8029 38.5937 74.4634 38.7914 74.0454 38.7914V37.061C73.9776 37.061 73.9026 37.0769 73.8326 37.1121C73.7655 37.1458 73.7264 37.1854 73.7098 37.2051L75.0339 38.3192ZM74.0454 38.7914C73.7003 38.7914 73.3483 38.668 73.0815 38.3772L74.3568 37.2075C74.3143 37.1612 74.2572 37.1196 74.1903 37.0922C74.1257 37.0657 74.0729 37.061 74.0454 37.061V38.7914ZM73.0822 38.3779C72.7927 38.063 72.7308 37.6728 72.7308 37.3812H74.4612C74.4612 37.4128 74.465 37.4059 74.4556 37.3743C74.4452 37.3396 74.4182 37.2743 74.3561 37.2068L73.0822 38.3779ZM72.7308 37.3812C72.7308 36.758 73.0134 36.233 73.5106 35.8748L74.5221 37.2788C74.498 37.2962 74.4844 37.3095 74.4773 37.3174C74.4706 37.325 74.4684 37.3291 74.4679 37.33C74.4675 37.3309 74.4663 37.3331 74.465 37.3388C74.4636 37.3449 74.4612 37.3583 74.4612 37.3812H72.7308ZM73.5104 35.8749C73.968 35.5451 74.506 35.4088 75.0676 35.4088V37.1392C74.788 37.1392 74.6255 37.2043 74.5222 37.2787L73.5104 35.8749ZM75.0676 35.4088C75.6927 35.4088 76.3184 35.5728 76.7782 36.05C77.2323 36.5212 77.3831 37.1519 77.3831 37.7792H75.6527C75.6527 37.4031 75.5616 37.2812 75.5322 37.2507C75.5085 37.2261 75.4091 37.1392 75.0676 37.1392V35.4088ZM77.3831 37.7792V40.2534H75.6527V37.7792H77.3831ZM77.3831 40.2534C77.3831 40.2678 77.3846 40.2543 77.377 40.2221C77.3692 40.1891 77.349 40.1247 77.298 40.0511L75.8753 41.036C75.6861 40.7627 75.6527 40.4615 75.6527 40.2534H77.3831ZM77.2984 40.0516C77.245 39.9744 77.1647 39.8975 77.0571 39.8438C76.9519 39.7913 76.8543 39.7777 76.786 39.7777V41.5082C76.4417 41.5082 76.0968 41.3566 75.8749 41.0356L77.2984 40.0516ZM76.786 39.7777C76.7069 39.7777 76.6069 39.7947 76.5044 39.8468C76.4021 39.8988 76.3301 39.9692 76.2842 40.0318L77.6795 41.0554C77.4692 41.342 77.1457 41.5082 76.786 41.5082V39.7777ZM76.2807 40.0366C76.2349 40.1 76.2115 40.1599 76.2001 40.2027C76.1891 40.2438 76.1891 40.2692 76.1891 40.271H77.9195C77.9195 40.4998 77.8719 40.7892 77.683 41.0506L76.2807 40.0366ZM77.0543 39.4058H77.2064V41.1362H77.0543V39.4058ZM78.0716 40.271C78.0716 40.6308 77.971 41.024 77.6727 41.3402L76.4139 40.1529C76.3788 40.1902 76.3576 40.2302 76.3471 40.2606C76.3378 40.288 76.3411 40.2953 76.3411 40.271H78.0716ZM77.6728 41.3402C77.3659 41.6656 76.9661 41.785 76.5902 41.785V40.0546C76.6012 40.0546 76.5796 40.0529 76.5394 40.0683C76.4958 40.085 76.4505 40.1141 76.4138 40.153L77.6728 41.3402ZM76.5902 41.785C76.1451 41.785 75.7355 41.6221 75.4158 41.3017L76.6407 40.0794C76.6416 40.0803 76.6392 40.0778 76.6331 40.0737C76.6269 40.0695 76.6189 40.0651 76.6099 40.0614C76.6009 40.0577 76.5934 40.0558 76.5887 40.0549C76.5842 40.0541 76.5843 40.0546 76.5902 40.0546V41.785ZM75.4146 41.3005C75.0418 40.9254 74.9339 40.4284 74.9276 39.9893L76.6578 39.9644C76.6593 40.0617 76.6717 40.1107 76.6767 40.126C76.6806 40.1377 76.6744 40.1133 76.6419 40.0806L75.4146 41.3005ZM76.5975 40.2944C76.4245 40.7328 76.1455 41.1053 75.7557 41.378L74.7639 39.96C74.8522 39.8982 74.9288 39.8091 74.9879 39.6592L76.5975 40.2944ZM75.7555 41.3782C75.3719 41.6463 74.9343 41.785 74.4659 41.785V40.0546C74.5774 40.0546 74.6693 40.0261 74.7642 39.9598L75.7555 41.3782ZM74.4659 41.785C73.9601 41.785 73.4799 41.6196 73.1003 41.2488L74.3093 40.0109C74.3258 40.027 74.3531 40.0546 74.4659 40.0546V41.785Z" fill="black" mask="url(#path-20-inside-7_47_64)"/>
<mask id="path-22-inside-8_47_64" fill="white">
<path d="M78.5957 40.8331V40.6599L79.1032 40.5736V36.6109L78.5957 36.5246V36.3514H80.2631V36.5246L79.8282 36.6109V38.4541H81.619V36.6109L81.1841 36.5246V36.3514H82.8515V36.5246L82.3442 36.6109V40.5736L82.8515 40.6599V40.8331H81.1841V40.6599L81.619 40.5736V38.6702H79.8282V40.5736L80.2631 40.6599V40.8331H78.5957Z"/>
</mask>
<path d="M78.5957 40.8331V41.6983H77.7305V40.8331H78.5957ZM78.5957 40.6599H77.7305V39.9293L78.4507 39.8069L78.5957 40.6599ZM79.1032 40.5736H79.9685V41.3042L79.2482 41.4266L79.1032 40.5736ZM79.1032 36.6109L79.2482 35.7579L79.9685 35.8803V36.6109H79.1032ZM78.5957 36.5246L78.4507 37.3776L77.7305 37.2552V36.5246H78.5957ZM78.5957 36.3514H77.7305V35.4862H78.5957V36.3514ZM80.2631 36.3514V35.4862H81.1283V36.3514H80.2631ZM80.2631 36.5246H81.1283V37.2351L80.4315 37.3733L80.2631 36.5246ZM79.8282 36.6109H78.963V35.9004L79.6599 35.7622L79.8282 36.6109ZM79.8282 38.4541V39.3193H78.963V38.4541H79.8282ZM81.619 38.4541H82.4842V39.3193H81.619V38.4541ZM81.619 36.6109L81.7873 35.7622L82.4842 35.9004V36.6109H81.619ZM81.1841 36.5246L81.0158 37.3733L80.3189 37.2351V36.5246H81.1841ZM81.1841 36.3514H80.3189V35.4862H81.1841V36.3514ZM82.8515 36.3514V35.4862H83.7167V36.3514H82.8515ZM82.8515 36.5246H83.7167V37.2551L82.9965 37.3776L82.8515 36.5246ZM82.3442 36.6109H81.4789V35.8804L82.1991 35.7579L82.3442 36.6109ZM82.3442 40.5736L82.1991 41.4266L81.4789 41.3041V40.5736H82.3442ZM82.8515 40.6599L82.9965 39.8069L83.7167 39.9294V40.6599H82.8515ZM82.8515 40.8331H83.7167V41.6983H82.8515V40.8331ZM81.1841 40.8331V41.6983H80.3189V40.8331H81.1841ZM81.1841 40.6599H80.3189V39.9495L81.0158 39.8112L81.1841 40.6599ZM81.619 40.5736H82.4842V41.2841L81.7873 41.4223L81.619 40.5736ZM81.619 38.6702V37.805H82.4842V38.6702H81.619ZM79.8282 38.6702H78.963V37.805H79.8282V38.6702ZM79.8282 40.5736L79.6599 41.4223L78.963 41.2841V40.5736H79.8282ZM80.2631 40.6599L80.4315 39.8112L81.1283 39.9495V40.6599H80.2631ZM80.2631 40.8331H81.1283V41.6983H80.2631V40.8331ZM77.7305 40.8331V40.6599H79.4609V40.8331H77.7305ZM78.4507 39.8069L78.9583 39.7206L79.2482 41.4266L78.7407 41.5129L78.4507 39.8069ZM78.238 40.5736V36.6109H79.9685V40.5736H78.238ZM78.9583 37.4639L78.4507 37.3776L78.7407 35.6716L79.2482 35.7579L78.9583 37.4639ZM77.7305 36.5246V36.3514H79.4609V36.5246H77.7305ZM78.5957 35.4862H80.2631V37.2166H78.5957V35.4862ZM81.1283 36.3514V36.5246H79.3979V36.3514H81.1283ZM80.4315 37.3733L79.9966 37.4596L79.6599 35.7622L80.0948 35.6759L80.4315 37.3733ZM80.6934 36.6109V38.4541H78.963V36.6109H80.6934ZM79.8282 37.5889H81.619V39.3193H79.8282V37.5889ZM80.7538 38.4541V36.6109H82.4842V38.4541H80.7538ZM81.4506 37.4596L81.0158 37.3733L81.3525 35.6759L81.7873 35.7622L81.4506 37.4596ZM80.3189 36.5246V36.3514H82.0493V36.5246H80.3189ZM81.1841 35.4862H82.8515V37.2166H81.1841V35.4862ZM83.7167 36.3514V36.5246H81.9863V36.3514H83.7167ZM82.9965 37.3776L82.4892 37.4639L82.1991 35.7579L82.7065 35.6716L82.9965 37.3776ZM83.2094 36.6109V40.5736H81.4789V36.6109H83.2094ZM82.4892 39.7207L82.9965 39.8069L82.7065 41.5129L82.1991 41.4266L82.4892 39.7207ZM83.7167 40.6599V40.8331H81.9863V40.6599H83.7167ZM82.8515 41.6983H81.1841V39.9679H82.8515V41.6983ZM80.3189 40.8331V40.6599H82.0493V40.8331H80.3189ZM81.0158 39.8112L81.4506 39.725L81.7873 41.4223L81.3525 41.5086L81.0158 39.8112ZM80.7538 40.5736V38.6702H82.4842V40.5736H80.7538ZM81.619 39.5354H79.8282V37.805H81.619V39.5354ZM80.6934 38.6702V40.5736H78.963V38.6702H80.6934ZM79.9966 39.725L80.4315 39.8112L80.0948 41.5086L79.6599 41.4223L79.9966 39.725ZM81.1283 40.6599V40.8331H79.3979V40.6599H81.1283ZM80.2631 41.6983H78.5957V39.9679H80.2631V41.6983Z" fill="black" mask="url(#path-22-inside-8_47_64)"/>
<mask id="path-24-inside-9_47_64" fill="white">
<path d="M84.3577 40.8331V40.6599L84.8654 40.5736V36.6109L84.3577 36.5246V36.3514H86.0254V36.5246L85.5902 36.6109V39.9767L87.4247 36.7841V36.6109L86.9895 36.5246V36.3514H88.6573V36.5246L88.1495 36.6109V40.5736L88.6573 40.6599V40.8331H86.9895V40.6599L87.4247 40.5736V37.1474L85.5902 40.3486V40.5736L86.0254 40.6599V40.8331H84.3577Z"/>
</mask>
<path d="M84.3577 40.8331V41.6983H83.4924V40.8331H84.3577ZM84.3577 40.6599H83.4924V39.9293L84.2127 39.8069L84.3577 40.6599ZM84.8654 40.5736H85.7306V41.3042L85.0103 41.4266L84.8654 40.5736ZM84.8654 36.6109L85.0103 35.7579L85.7306 35.8803V36.6109H84.8654ZM84.3577 36.5246L84.2127 37.3776L83.4924 37.2552V36.5246H84.3577ZM84.3577 36.3514H83.4924V35.4862H84.3577V36.3514ZM86.0254 36.3514V35.4862H86.8907V36.3514H86.0254ZM86.0254 36.5246H86.8907V37.2352L86.1937 37.3733L86.0254 36.5246ZM85.5902 36.6109H84.725V35.9003L85.422 35.7622L85.5902 36.6109ZM85.5902 39.9767L86.3404 40.4077L84.725 43.2189V39.9767H85.5902ZM87.4247 36.7841H88.2899V37.015L88.1749 37.2152L87.4247 36.7841ZM87.4247 36.6109L87.5929 35.7622L88.2899 35.9003V36.6109H87.4247ZM86.9895 36.5246L86.8213 37.3733L86.1243 37.2352V36.5246H86.9895ZM86.9895 36.3514H86.1243V35.4862H86.9895V36.3514ZM88.6573 36.3514V35.4862H89.5225V36.3514H88.6573ZM88.6573 36.5246H89.5225V37.2552L88.8022 37.3776L88.6573 36.5246ZM88.1495 36.6109H87.2843V35.8803L88.0046 35.7579L88.1495 36.6109ZM88.1495 40.5736L88.0046 41.4266L87.2843 41.3042V40.5736H88.1495ZM88.6573 40.6599L88.8022 39.8069L89.5225 39.9293V40.6599H88.6573ZM88.6573 40.8331H89.5225V41.6983H88.6573V40.8331ZM86.9895 40.8331V41.6983H86.1243V40.8331H86.9895ZM86.9895 40.6599H86.1243V39.9493L86.8213 39.8112L86.9895 40.6599ZM87.4247 40.5736H88.2899V41.2842L87.5929 41.4223L87.4247 40.5736ZM87.4247 37.1474L86.674 36.7172L88.2899 33.8975V37.1474H87.4247ZM85.5902 40.3486H84.725V40.1183L84.8395 39.9184L85.5902 40.3486ZM85.5902 40.5736L85.422 41.4223L84.725 41.2842V40.5736H85.5902ZM86.0254 40.6599L86.1937 39.8112L86.8907 39.9493V40.6599H86.0254ZM86.0254 40.8331H86.8907V41.6983H86.0254V40.8331ZM83.4924 40.8331V40.6599H85.2229V40.8331H83.4924ZM84.2127 39.8069L84.7205 39.7206L85.0103 41.4266L84.5026 41.5129L84.2127 39.8069ZM84.0002 40.5736V36.6109H85.7306V40.5736H84.0002ZM84.7205 37.4639L84.2127 37.3776L84.5026 35.6716L85.0103 35.7579L84.7205 37.4639ZM83.4924 36.5246V36.3514H85.2229V36.5246H83.4924ZM84.3577 35.4862H86.0254V37.2166H84.3577V35.4862ZM86.8907 36.3514V36.5246H85.1602V36.3514H86.8907ZM86.1937 37.3733L85.7584 37.4596L85.422 35.7622L85.8572 35.6759L86.1937 37.3733ZM86.4554 36.6109V39.9767H84.725V36.6109H86.4554ZM84.84 39.5456L86.6746 36.353L88.1749 37.2152L86.3404 40.4077L84.84 39.5456ZM86.5595 36.7841V36.6109H88.2899V36.7841H86.5595ZM87.2565 37.4596L86.8213 37.3733L87.1577 35.6759L87.5929 35.7622L87.2565 37.4596ZM86.1243 36.5246V36.3514H87.8547V36.5246H86.1243ZM86.9895 35.4862H88.6573V37.2166H86.9895V35.4862ZM89.5225 36.3514V36.5246H87.792V36.3514H89.5225ZM88.8022 37.3776L88.2945 37.4639L88.0046 35.7579L88.5123 35.6716L88.8022 37.3776ZM89.0147 36.6109V40.5736H87.2843V36.6109H89.0147ZM88.2945 39.7206L88.8022 39.8069L88.5123 41.5129L88.0046 41.4266L88.2945 39.7206ZM89.5225 40.6599V40.8331H87.792V40.6599H89.5225ZM88.6573 41.6983H86.9895V39.9679H88.6573V41.6983ZM86.1243 40.8331V40.6599H87.8547V40.8331H86.1243ZM86.8213 39.8112L87.2565 39.7249L87.5929 41.4223L87.1577 41.5086L86.8213 39.8112ZM86.5595 40.5736V37.1474H88.2899V40.5736H86.5595ZM88.1754 37.5776L86.3409 40.7788L84.8395 39.9184L86.674 36.7172L88.1754 37.5776ZM86.4554 40.3486V40.5736H84.725V40.3486H86.4554ZM85.7584 39.7249L86.1937 39.8112L85.8572 41.5086L85.422 41.4223L85.7584 39.7249ZM86.8907 40.6599V40.8331H85.1602V40.6599H86.8907ZM86.0254 41.6983H84.3577V39.9679H86.0254V41.6983Z" fill="black" mask="url(#path-24-inside-9_47_64)"/>
<path d="M93.1908 38.653L93.0349 38.8064C93.086 38.9416 93.1197 39.0876 93.1431 39.2334L93.1432 39.2343L93.1673 39.3865L93.1676 39.389L93.2854 40.1341L93.2859 40.1377L93.2882 40.1517L93.2882 40.1517L93.2885 40.1538C93.3215 40.3702 93.3713 40.4462 93.3836 40.4605C93.3915 40.466 93.4308 40.4872 93.5424 40.4872C93.5801 40.4872 93.6321 40.4776 93.7025 40.4416C93.6698 40.3736 93.6382 40.2531 93.6076 40.0807L93.4843 39.3365C93.436 39.0308 93.3382 38.8031 93.1908 38.653ZM93.1908 38.653L93.0348 38.8062C93.0001 38.7143 92.9572 38.6273 92.9041 38.5488C92.9177 38.5288 92.9306 38.5082 92.9431 38.4871C93.0426 38.531 93.1252 38.5863 93.1908 38.653ZM92.9296 36.4857L92.9786 36.52C93.0206 36.5115 93.0637 36.5073 93.1074 36.5073C93.2131 36.5073 93.3081 36.5335 93.3902 36.5775C93.4399 36.6041 93.4849 36.6373 93.5247 36.6752L93.7962 36.4423M92.9296 36.4857L92.9785 36.52C92.9492 36.5258 92.9205 36.5338 92.8925 36.5437C92.9045 36.5232 92.9169 36.5038 92.9296 36.4857ZM92.9296 36.4857C93.0287 36.3445 93.1824 36.274 93.3902 36.274C93.564 36.274 93.6995 36.33 93.7962 36.4423M93.7962 36.4423C93.8929 36.555 93.941 36.692 93.941 36.8534C93.941 37.0035 93.9013 37.1318 93.8215 37.2385C93.7957 37.2731 93.7669 37.302 93.7353 37.3254C93.7402 37.2868 93.7429 37.2478 93.7429 37.2083C93.7429 37.1987 93.7427 37.189 93.7424 37.1794C93.7386 37.0694 93.7131 36.9576 93.6585 36.8534C93.6418 36.8216 93.6224 36.7905 93.6001 36.7604L93.5989 36.7588C93.5768 36.7293 93.5522 36.7014 93.5252 36.6757L93.7962 36.4423ZM90.9781 36.7842V38.1253V38.3589V38.5579V38.7915V36.7842ZM90.9781 36.7842H90.6859H90.9781ZM91.1185 38.1253H91.4107V37.9263V36.7842H91.1185V38.1253ZM91.4107 38.7915H91.1185H91.4107Z" stroke="black" stroke-width="0.865216"/>
<mask id="path-27-inside-10_47_64" fill="white">
<path d="M100.24 40.271C100.424 39.9653 100.516 39.5497 100.516 39.025V38.1599C100.516 37.6294 100.424 37.2141 100.24 36.9141C100.056 36.6142 99.7883 36.4641 99.4354 36.4641C99.0825 36.4641 98.8143 36.6142 98.6306 36.9141C98.4471 37.2141 98.3551 37.6294 98.3551 38.1599V39.025C98.3551 39.5497 98.4471 39.9653 98.6306 40.271C98.8143 40.5767 99.0825 40.7294 99.4354 40.7294C99.7883 40.7294 100.056 40.5767 100.24 40.271ZM98.0942 40.2797C97.751 39.8528 97.5721 39.3165 97.5576 38.6704H96.8688V40.5738L97.304 40.6601V40.8333H95.6362V40.6601L96.144 40.5738V36.6111L95.6362 36.5248V36.3516H97.304V36.5248L96.8688 36.6111V38.454H97.5576C97.5768 38.0214 97.6713 37.6407 97.8404 37.3121C98.0094 36.9833 98.2332 36.728 98.5112 36.5464C98.789 36.3647 99.0972 36.274 99.4354 36.274C99.7836 36.274 100.101 36.3721 100.389 36.5682C100.676 36.764 100.902 37.0395 101.067 37.3944C101.231 37.749 101.313 38.1483 101.313 38.5925C101.313 39.0368 101.231 39.4359 101.067 39.7905C100.902 40.1456 100.678 40.4222 100.393 40.6212C100.107 40.8202 99.7883 40.9198 99.4354 40.9198C98.9135 40.9198 98.4663 40.7063 98.0942 40.2797Z"/>
</mask>
<path d="M100.24 36.9141L100.978 36.4619L100.978 36.4622L100.24 36.9141ZM98.6306 36.9141L97.8926 36.4625L97.8928 36.4622L98.6306 36.9141ZM98.6306 40.271L97.889 40.7166L97.8888 40.7163L98.6306 40.271ZM97.5576 38.6704V37.8052H98.4036L98.4226 38.6509L97.5576 38.6704ZM96.8688 38.6704H96.0035V37.8052H96.8688V38.6704ZM96.8688 40.5738L96.7005 41.4225L96.0035 41.2844V40.5738H96.8688ZM97.304 40.6601L97.4722 39.8114L98.1692 39.9495V40.6601H97.304ZM97.304 40.8333H98.1692V41.6985H97.304V40.8333ZM95.6362 40.8333V41.6985H94.771V40.8333H95.6362ZM95.6362 40.6601H94.771V39.9295L95.4913 39.8071L95.6362 40.6601ZM96.144 40.5738H97.0092V41.3044L96.2889 41.4268L96.144 40.5738ZM96.144 36.6111L96.2889 35.7581L97.0092 35.8805V36.6111H96.144ZM95.6362 36.5248L95.4913 37.3778L94.771 37.2554V36.5248H95.6362ZM95.6362 36.3516H94.771V35.4864H95.6362V36.3516ZM97.304 36.3516V35.4864H98.1692V36.3516H97.304ZM97.304 36.5248H98.1692V37.2354L97.4722 37.3735L97.304 36.5248ZM96.8688 36.6111H96.0035V35.9005L96.7005 35.7624L96.8688 36.6111ZM96.8688 38.454V39.3192H96.0035V38.454H96.8688ZM97.5576 38.454L98.422 38.4924L98.3853 39.3192H97.5576V38.454ZM97.8404 37.3121L98.61 37.7076L98.6097 37.7081L97.8404 37.3121ZM98.5112 36.5464L98.9847 37.2705L98.9845 37.2707L98.5112 36.5464ZM100.389 36.5682L99.9018 37.2832L99.9014 37.2829L100.389 36.5682ZM101.067 37.3944L101.852 37.0304L101.852 37.0306L101.067 37.3944ZM101.067 39.7905L100.282 39.4268L100.282 39.4267L101.067 39.7905ZM100.393 40.6212L100.888 41.3305L100.887 41.3309L100.393 40.6212ZM99.4987 39.8253C99.572 39.7033 99.6506 39.4621 99.6506 39.025H101.381C101.381 39.6374 101.276 40.2272 100.982 40.7166L99.4987 39.8253ZM99.6506 39.025V38.1599H101.381V39.025H99.6506ZM99.6506 38.1599C99.6506 37.7136 99.5708 37.4775 99.5025 37.366L100.978 36.4622C101.277 36.9506 101.381 37.5452 101.381 38.1599H99.6506ZM99.5027 37.3664C99.4889 37.3439 99.4793 37.3336 99.4762 37.3305C99.4735 37.3278 99.4745 37.3293 99.4789 37.3318C99.4833 37.3342 99.485 37.3342 99.481 37.3333C99.4764 37.3321 99.4622 37.3293 99.4354 37.3293V35.5989C100.089 35.5989 100.636 35.9048 100.978 36.4619L99.5027 37.3664ZM99.4354 37.3293C99.4086 37.3293 99.3944 37.3321 99.3898 37.3333C99.3857 37.3342 99.3875 37.3342 99.3919 37.3317C99.3963 37.3293 99.3974 37.3277 99.3948 37.3303C99.3917 37.3334 99.3821 37.3437 99.3684 37.366L97.8928 36.4622C98.2342 35.9048 98.7822 35.5989 99.4354 35.5989V37.3293ZM99.3686 37.3657C99.3002 37.4775 99.2203 37.7139 99.2203 38.1599H97.4898C97.4898 37.5449 97.594 36.9506 97.8926 36.4625L99.3686 37.3657ZM99.2203 38.1599V39.025H97.4898V38.1599H99.2203ZM99.2203 39.025C99.2203 39.4617 99.299 39.7033 99.3724 39.8257L97.8888 40.7163C97.5952 40.2273 97.4898 39.6377 97.4898 39.025H99.2203ZM99.3722 39.8253C99.3867 39.8493 99.3969 39.8606 99.4005 39.8643C99.4036 39.8675 99.4027 39.8658 99.3978 39.8631C99.393 39.8603 99.3904 39.8599 99.3933 39.8606C99.3967 39.8615 99.4097 39.8642 99.4354 39.8642V41.5947C98.7748 41.5947 98.2271 41.2793 97.889 40.7166L99.3722 39.8253ZM99.4354 39.8642C99.461 39.8642 99.474 39.8615 99.4775 39.8606C99.4803 39.8599 99.4778 39.8603 99.473 39.8631C99.4682 39.8658 99.4673 39.8674 99.4705 39.8641C99.4741 39.8604 99.4844 39.8491 99.4989 39.825L100.982 40.717C100.643 41.2792 100.096 41.5947 99.4354 41.5947V39.8642ZM97.4199 40.8218C96.9369 40.221 96.7106 39.491 96.6926 38.6898L98.4226 38.6509C98.4336 39.142 98.5651 39.4846 98.7685 39.7375L97.4199 40.8218ZM97.5576 39.5356H96.8688V37.8052H97.5576V39.5356ZM97.734 38.6704V40.5738H96.0035V38.6704H97.734ZM97.037 39.7251L97.4722 39.8114L97.1358 41.5088L96.7005 41.4225L97.037 39.7251ZM98.1692 40.6601V40.8333H96.4388V40.6601H98.1692ZM97.304 41.6985H95.6362V39.9681H97.304V41.6985ZM94.771 40.8333V40.6601H96.5014V40.8333H94.771ZM95.4913 39.8071L95.999 39.7208L96.2889 41.4268L95.7812 41.5131L95.4913 39.8071ZM95.2787 40.5738V36.6111H97.0092V40.5738H95.2787ZM95.999 37.4641L95.4913 37.3778L95.7812 35.6718L96.2889 35.7581L95.999 37.4641ZM94.771 36.5248V36.3516H96.5014V36.5248H94.771ZM95.6362 35.4864H97.304V37.2168H95.6362V35.4864ZM98.1692 36.3516V36.5248H96.4388V36.3516H98.1692ZM97.4722 37.3735L97.037 37.4598L96.7005 35.7624L97.1358 35.6761L97.4722 37.3735ZM97.734 36.6111V38.454H96.0035V36.6111H97.734ZM96.8688 37.5888H97.5576V39.3192H96.8688V37.5888ZM96.6932 38.4157C96.717 37.8791 96.836 37.3728 97.0712 36.9161L98.6097 37.7081C98.5065 37.9087 98.4365 38.1636 98.422 38.4924L96.6932 38.4157ZM97.0709 36.9166C97.3007 36.4695 97.6208 36.0946 98.0379 35.8221L98.9845 37.2707C98.8456 37.3614 98.7182 37.4971 98.61 37.7076L97.0709 36.9166ZM98.0377 35.8222C98.4593 35.5465 98.9327 35.4088 99.4354 35.4088V37.1392C99.2617 37.1392 99.1187 37.1829 98.9847 37.2705L98.0377 35.8222ZM99.4354 35.4088C99.9574 35.4088 100.445 35.5592 100.877 35.8534L99.9014 37.2829C99.7577 37.1849 99.6098 37.1392 99.4354 37.1392V35.4088ZM100.876 35.8531C101.309 36.1478 101.63 36.5522 101.852 37.0304L100.282 37.7583C100.175 37.5268 100.044 37.3803 99.9018 37.2832L100.876 35.8531ZM101.852 37.0306C102.076 37.5138 102.179 38.0398 102.179 38.5925H100.448C100.448 38.2568 100.387 37.9842 100.282 37.7581L101.852 37.0306ZM102.179 38.5925C102.179 39.1454 102.076 39.6711 101.852 40.1543L100.282 39.4267C100.387 39.2006 100.448 38.9282 100.448 38.5925H102.179ZM101.852 40.1543C101.631 40.6307 101.313 41.0335 100.888 41.3305L99.8972 39.9119C100.042 39.8108 100.173 39.6605 100.282 39.4268L101.852 40.1543ZM100.887 41.3309C100.455 41.6325 99.9628 41.785 99.4354 41.785V40.0546C99.6137 40.0546 99.7595 40.0078 99.8979 39.9114L100.887 41.3309ZM99.4354 41.785C98.6405 41.785 97.9628 41.4454 97.4421 40.8483L98.7463 39.711C98.9698 39.9673 99.1864 40.0546 99.4354 40.0546V41.785Z" fill="black" mask="url(#path-27-inside-10_47_64)"/>
<mask id="path-29-inside-11_47_64" fill="white">
<path d="M106.061 39.0338V38.1685C106.061 37.0497 105.725 36.49 105.053 36.49C104.84 36.49 104.647 36.5636 104.473 36.7108C104.299 36.8578 104.161 37.0552 104.06 37.3031C103.958 37.5515 103.905 37.8194 103.9 38.108V39.0338C103.9 39.3278 103.95 39.6035 104.049 39.86C104.148 40.1164 104.286 40.3214 104.462 40.4741C104.639 40.6271 104.836 40.7034 105.053 40.7034C105.725 40.7034 106.061 40.1471 106.061 39.0338ZM102.668 43.1086L103.175 43.0219V36.6199L102.668 36.5334V36.3602H103.9V37.2689C104.021 36.9572 104.184 36.7137 104.39 36.5376C104.595 36.3618 104.84 36.2739 105.126 36.2739C105.469 36.2739 105.771 36.3707 106.032 36.5636C106.293 36.7571 106.496 37.0281 106.641 37.3767C106.786 37.7258 106.859 38.1338 106.859 38.6012C106.859 39.0683 106.786 39.4763 106.641 39.8254C106.496 40.1744 106.293 40.4439 106.032 40.6342C105.771 40.8245 105.469 40.9199 105.126 40.9199C104.84 40.9199 104.595 40.8317 104.39 40.656C104.184 40.4801 104.021 40.2393 103.9 39.9336V43.0219L104.582 43.1086V43.2818H102.668V43.1086Z"/>
</mask>
<path d="M104.473 36.7108L105.032 37.3712L105.031 37.3719L104.473 36.7108ZM104.06 37.3031L103.259 36.9757L103.259 36.9752L104.06 37.3031ZM103.9 38.108H103.035V38.1007L103.035 38.0935L103.9 38.108ZM104.049 39.86L103.242 40.1721L103.242 40.1718L104.049 39.86ZM104.462 40.4741L105.028 39.82L105.029 39.8204L104.462 40.4741ZM102.668 43.1086H101.803V42.3786L102.522 42.2558L102.668 43.1086ZM103.175 43.0219H104.041V43.7519L103.321 43.8748L103.175 43.0219ZM103.175 36.6199L103.321 35.767L104.041 35.8896V36.6199H103.175ZM102.668 36.5334L102.522 37.3863L101.803 37.2637V36.5334H102.668ZM102.668 36.3602H101.803V35.495H102.668V36.3602ZM103.9 36.3602V35.495H104.765V36.3602H103.9ZM103.9 37.2689L104.707 37.5818L103.035 37.2689H103.9ZM104.39 36.5376L104.953 37.1945L104.953 37.1946L104.39 36.5376ZM106.032 36.5636L106.547 35.8681L106.547 35.8687L106.032 36.5636ZM106.641 37.3767L107.44 37.0442L107.44 37.0449L106.641 37.3767ZM106.641 39.8254L107.44 40.1572L107.44 40.1575L106.641 39.8254ZM104.39 40.656L104.952 39.9986L104.953 39.9988L104.39 40.656ZM103.9 39.9336H103.035L104.705 39.6154L103.9 39.9336ZM103.9 43.0219L103.791 43.8802L103.035 43.7841V43.0219H103.9ZM104.582 43.1086L104.691 42.2503L105.447 42.3465V43.1086H104.582ZM104.582 43.2818H105.447V44.147H104.582V43.2818ZM102.668 43.2818V44.147H101.803V43.2818H102.668ZM105.196 39.0338V38.1685H106.926V39.0338H105.196ZM105.196 38.1685C105.196 37.6676 105.116 37.4356 105.067 37.3552C105.051 37.3279 105.05 37.3384 105.074 37.3514C105.096 37.3638 105.098 37.3553 105.053 37.3553V35.6248C105.682 35.6248 106.221 35.9149 106.551 36.4642C106.838 36.9433 106.926 37.5506 106.926 38.1685H105.196ZM105.053 37.3553C105.05 37.3553 105.05 37.3555 105.052 37.3552C105.053 37.3549 105.055 37.3543 105.056 37.3538C105.058 37.3534 105.057 37.3536 105.053 37.3557C105.049 37.3579 105.042 37.3625 105.032 37.3712L103.914 36.0505C104.232 35.7811 104.621 35.6248 105.053 35.6248V37.3553ZM105.031 37.3719C104.981 37.4142 104.919 37.4892 104.861 37.6311L103.259 36.9752C103.404 36.6212 103.617 36.3014 103.915 36.0498L105.031 37.3719ZM104.861 37.6306C104.803 37.7726 104.769 37.9336 104.765 38.1225L103.035 38.0935C103.042 37.7052 103.114 37.3304 103.259 36.9757L104.861 37.6306ZM104.765 38.108V39.0338H103.035V38.108H104.765ZM104.765 39.0338C104.765 39.2287 104.798 39.3979 104.856 39.5482L103.242 40.1718C103.102 39.809 103.035 39.4268 103.035 39.0338H104.765ZM104.856 39.548C104.913 39.6966 104.977 39.7755 105.028 39.82L103.896 41.1283C103.594 40.8673 103.383 40.5362 103.242 40.1721L104.856 39.548ZM105.029 39.8204C105.04 39.8297 105.047 39.8348 105.051 39.8372C105.055 39.8395 105.056 39.8399 105.055 39.8394C105.054 39.839 105.052 39.8385 105.051 39.8382C105.049 39.8379 105.05 39.8382 105.053 39.8382V41.5686C104.612 41.5686 104.217 41.4067 103.895 41.1279L105.029 39.8204ZM105.053 39.8382C105.099 39.8382 105.098 39.8295 105.076 39.8416C105.052 39.8544 105.052 39.8651 105.068 39.8388C105.116 39.7604 105.196 39.5315 105.196 39.0338H106.926C106.926 39.6494 106.838 40.2552 106.55 40.7334C106.218 41.2815 105.679 41.5686 105.053 41.5686V39.8382ZM102.522 42.2558L103.03 42.169L103.321 43.8748L102.813 43.9615L102.522 42.2558ZM102.31 43.0219V36.6199H104.041V43.0219H102.31ZM103.03 37.4728L102.522 37.3863L102.813 35.6805L103.321 35.767L103.03 37.4728ZM101.803 36.5334V36.3602H103.533V36.5334H101.803ZM102.668 35.495H103.9V37.2254H102.668V35.495ZM104.765 36.3602V37.2689H103.035V36.3602H104.765ZM103.094 36.956C103.254 36.5416 103.491 36.1687 103.827 35.8806L104.953 37.1946C104.878 37.2588 104.788 37.3728 104.707 37.5818L103.094 36.956ZM103.827 35.8808C104.198 35.5623 104.647 35.4087 105.126 35.4087V37.1392C105.034 37.1392 104.992 37.1612 104.953 37.1945L103.827 35.8808ZM105.126 35.4087C105.643 35.4087 106.128 35.5585 106.547 35.8681L105.517 37.2592C105.414 37.1828 105.295 37.1392 105.126 37.1392V35.4087ZM106.547 35.8687C106.953 36.1693 107.245 36.5751 107.44 37.0442L105.842 37.7093C105.747 37.4812 105.633 37.3449 105.517 37.2586L106.547 35.8687ZM107.44 37.0449C107.638 37.5208 107.724 38.046 107.724 38.6012H105.993C105.993 38.2216 105.934 37.9308 105.842 37.7086L107.44 37.0449ZM107.724 38.6012C107.724 39.1562 107.638 39.6813 107.44 40.1572L105.842 39.4935C105.934 39.2713 105.993 38.9804 105.993 38.6012H107.724ZM107.44 40.1575C107.244 40.6281 106.951 41.0346 106.542 41.3332L105.522 39.9353C105.635 39.8532 105.748 39.7208 105.842 39.4932L107.44 40.1575ZM106.542 41.3332C106.124 41.6384 105.64 41.7851 105.126 41.7851V40.0547C105.298 40.0547 105.419 40.0107 105.522 39.9353L106.542 41.3332ZM105.126 41.7851C104.646 41.7851 104.198 41.6306 103.827 41.3132L104.953 39.9988C104.992 40.0328 105.035 40.0547 105.126 40.0547V41.7851ZM103.827 41.3134C103.494 41.0281 103.257 40.6607 103.096 40.2519L104.705 39.6154C104.785 39.818 104.875 39.9321 104.952 39.9986L103.827 41.3134ZM104.765 39.9336V43.0219H103.035V39.9336H104.765ZM104.009 42.1636L104.691 42.2503L104.473 43.9669L103.791 43.8802L104.009 42.1636ZM105.447 43.1086V43.2818H103.717V43.1086H105.447ZM104.582 44.147H102.668V42.4166H104.582V44.147ZM101.803 43.2818V43.1086H103.533V43.2818H101.803Z" fill="black" mask="url(#path-29-inside-11_47_64)"/>
<mask id="path-31-inside-12_47_64" fill="white">
<path d="M110.315 40.4006C110.452 40.3083 110.57 40.1743 110.666 39.9984C110.763 39.8223 110.821 39.6106 110.84 39.3625V38.4627H110.355C109.958 38.4627 109.662 38.5681 109.466 38.7786C109.271 38.989 109.173 39.2847 109.173 39.6651C109.173 39.9824 109.236 40.2076 109.361 40.3401C109.487 40.4729 109.671 40.5391 109.912 40.5391C110.043 40.5391 110.177 40.4931 110.315 40.4006ZM108.752 40.6298C108.554 40.4368 108.455 40.1498 108.455 39.7689C108.455 39.2269 108.646 38.842 109.028 38.6143C109.409 38.3862 109.852 38.2724 110.355 38.2724H110.84V37.6063C110.84 37.3063 110.813 37.074 110.757 36.9097C110.701 36.7454 110.616 36.6302 110.5 36.5637C110.384 36.4975 110.227 36.4641 110.028 36.4641C109.801 36.4641 109.632 36.5175 109.521 36.6242C109.409 36.7309 109.354 36.8739 109.354 37.0524C109.354 37.2198 109.422 37.3294 109.557 37.3812C109.557 37.5253 109.511 37.6523 109.419 37.7621C109.327 37.8715 109.219 37.9262 109.093 37.9262C108.958 37.9262 108.849 37.8817 108.767 37.7924C108.685 37.703 108.644 37.566 108.644 37.3812C108.644 37.0469 108.784 36.7787 109.064 36.5768C109.344 36.3747 109.695 36.274 110.115 36.274C111.082 36.274 111.565 36.7758 111.565 37.7792V40.2534C111.565 40.3804 111.588 40.4771 111.634 40.5436C111.68 40.6096 111.747 40.643 111.834 40.643C111.916 40.643 111.981 40.6096 112.029 40.5436C112.078 40.4771 112.102 40.3864 112.102 40.271H112.254C112.254 40.4729 112.2 40.6314 112.091 40.7466C111.982 40.862 111.831 40.9198 111.638 40.9198C111.415 40.9198 111.228 40.8433 111.076 40.6905C110.924 40.5376 110.845 40.2999 110.84 39.9768C110.724 40.271 110.546 40.5018 110.307 40.669C110.068 40.8362 109.804 40.9198 109.514 40.9198C109.204 40.9198 108.95 40.8233 108.752 40.6298Z"/>
</mask>
<path d="M110.666 39.9984L111.425 40.4149L111.424 40.4153L110.666 39.9984ZM110.84 39.3625H111.706V39.3962L111.703 39.4299L110.84 39.3625ZM110.84 38.4627V37.5975H111.706V38.4627H110.84ZM109.466 38.7786L110.1 39.3679L110.1 39.3679L109.466 38.7786ZM109.361 40.3401L109.989 39.7445L109.99 39.7455L109.361 40.3401ZM109.028 38.6143L109.472 39.357L109.471 39.3575L109.028 38.6143ZM110.84 38.2724H111.706V39.1376H110.84V38.2724ZM110.757 36.9097L111.576 36.6318L111.577 36.6327L110.757 36.9097ZM110.5 36.5637L110.929 35.8126L110.93 35.8129L110.5 36.5637ZM109.521 36.6242L110.12 37.248L110.119 37.249L109.521 36.6242ZM109.557 37.3812L109.866 36.5733L110.422 36.7861V37.3812H109.557ZM109.419 37.7621L110.084 38.3165L110.081 38.3192L109.419 37.7621ZM108.767 37.7924L109.404 37.2068L109.404 37.2075L108.767 37.7924ZM109.064 36.5768L109.57 37.2787L109.57 37.2788L109.064 36.5768ZM111.634 40.5436L110.923 41.0369L110.923 41.036L111.634 40.5436ZM112.029 40.5436L112.73 41.0518L112.727 41.0554L112.029 40.5436ZM112.102 40.271H111.237V39.4058H112.102V40.271ZM112.254 40.271V39.4058H113.119V40.271H112.254ZM112.091 40.7466L112.721 41.3397L112.72 41.3407L112.091 40.7466ZM111.076 40.6905L110.463 41.3017L110.462 41.3005L111.076 40.6905ZM110.84 39.9768L110.036 39.6592L111.705 39.9644L110.84 39.9768ZM110.307 40.669L110.803 41.378L110.803 41.3782L110.307 40.669ZM109.833 39.6819C109.834 39.6813 109.864 39.6614 109.908 39.5815L111.424 40.4153C111.275 40.6871 111.071 40.9354 110.796 41.1194L109.833 39.6819ZM109.908 39.5819C109.933 39.5359 109.966 39.4492 109.978 39.2951L111.703 39.4299C111.676 39.7721 111.593 40.1087 111.425 40.4149L109.908 39.5819ZM109.975 39.3625V38.4627H111.706V39.3625H109.975ZM110.84 39.3279H110.355V37.5975H110.84V39.3279ZM110.355 39.3279C110.23 39.3279 110.159 39.3447 110.125 39.3569C110.096 39.3673 110.095 39.3735 110.1 39.3679L108.833 38.1894C109.247 37.7444 109.811 37.5975 110.355 37.5975V39.3279ZM110.1 39.3679C110.096 39.3718 110.038 39.4305 110.038 39.6651H108.308C108.308 39.1389 108.445 38.6062 108.833 38.1894L110.1 39.3679ZM110.038 39.6651C110.038 39.7165 110.041 39.7565 110.044 39.7865C110.048 39.8167 110.052 39.8335 110.053 39.8396C110.057 39.8533 110.047 39.8055 109.989 39.7445L108.734 40.9358C108.376 40.5587 108.308 40.0524 108.308 39.6651H110.038ZM109.99 39.7455C109.973 39.7277 109.954 39.7122 109.935 39.6996C109.915 39.6872 109.898 39.6797 109.887 39.6756C109.865 39.6677 109.869 39.6739 109.912 39.6739V41.4043C109.514 41.4043 109.07 41.2912 108.733 40.9348L109.99 39.7455ZM109.912 39.6739C109.874 39.6739 109.845 39.681 109.829 39.6864C109.815 39.6914 109.816 39.6935 109.833 39.6821L110.797 41.1191C110.554 41.2816 110.255 41.4043 109.912 41.4043V39.6739ZM108.149 41.2498C107.728 40.8404 107.59 40.2935 107.59 39.7689H109.32C109.32 39.8865 109.336 39.9543 109.347 39.9871C109.357 40.0156 109.363 40.0164 109.356 40.0099L108.149 41.2498ZM107.59 39.7689C107.59 39 107.88 38.291 108.585 37.8711L109.471 39.3575C109.411 39.393 109.32 39.4538 109.32 39.7689H107.59ZM108.584 37.8717C109.117 37.5531 109.717 37.4072 110.355 37.4072V39.1376C109.987 39.1376 109.702 39.2193 109.472 39.357L108.584 37.8717ZM110.355 37.4072H110.84V39.1376H110.355V37.4072ZM109.975 38.2724V37.6063H111.706V38.2724H109.975ZM109.975 37.6063C109.975 37.3423 109.948 37.2196 109.937 37.1867L111.577 36.6327C111.677 36.9284 111.706 37.2704 111.706 37.6063H109.975ZM109.938 37.1875C109.933 37.1738 109.936 37.1884 109.957 37.2166C109.98 37.2472 110.017 37.2844 110.07 37.3145L110.93 35.8129C111.278 36.0123 111.474 36.3285 111.576 36.6318L109.938 37.1875ZM110.07 37.3148C110.104 37.3342 110.123 37.3372 110.116 37.3355C110.108 37.3338 110.08 37.3293 110.028 37.3293V35.5989C110.31 35.5989 110.634 35.6442 110.929 35.8126L110.07 37.3148ZM110.028 37.3293C109.979 37.3293 109.972 37.3354 109.991 37.3292C110.014 37.3219 110.066 37.3001 110.12 37.248L108.921 36.0004C109.256 35.6787 109.683 35.5989 110.028 35.5989V37.3293ZM110.119 37.249C110.154 37.2153 110.184 37.1716 110.202 37.1249C110.219 37.081 110.219 37.0525 110.219 37.0524H108.489C108.489 36.6804 108.612 36.2965 108.922 35.9994L110.119 37.249ZM110.219 37.0524C110.219 37.0229 110.213 36.9229 110.141 36.8058C110.063 36.6792 109.953 36.6063 109.866 36.5733L109.247 38.1892C109.026 38.1044 108.814 37.9508 108.668 37.7145C108.529 37.4879 108.489 37.2494 108.489 37.0524H110.219ZM110.422 37.3812C110.422 37.7264 110.306 38.0499 110.084 38.3165L108.755 37.2077C108.74 37.2256 108.722 37.2537 108.709 37.2907C108.695 37.3276 108.692 37.3599 108.692 37.3812H110.422ZM110.081 38.3192C109.85 38.5937 109.511 38.7914 109.093 38.7914V37.061C109.025 37.061 108.95 37.0769 108.88 37.1121C108.813 37.1458 108.774 37.1854 108.757 37.2051L110.081 38.3192ZM109.093 38.7914C108.748 38.7914 108.396 38.6682 108.129 38.3772L109.404 37.2075C109.362 37.161 109.305 37.1195 109.238 37.0922C109.173 37.0658 109.121 37.061 109.093 37.061V38.7914ZM108.13 38.3779C107.84 38.063 107.778 37.6728 107.778 37.3812H109.509C109.509 37.4128 109.513 37.4059 109.503 37.3743C109.493 37.3396 109.466 37.2743 109.404 37.2068L108.13 38.3779ZM107.778 37.3812C107.778 36.758 108.061 36.233 108.558 35.8748L109.57 37.2788C109.546 37.2962 109.532 37.3095 109.525 37.3174C109.518 37.325 109.516 37.3291 109.516 37.33C109.515 37.3309 109.514 37.3331 109.513 37.3388C109.511 37.3449 109.509 37.3583 109.509 37.3812H107.778ZM108.558 35.8749C109.016 35.5451 109.554 35.4088 110.115 35.4088V37.1392C109.836 37.1392 109.673 37.2043 109.57 37.2787L108.558 35.8749ZM110.115 35.4088C110.74 35.4088 111.366 35.5728 111.826 36.05C112.28 36.5212 112.431 37.1519 112.431 37.7792H110.7C110.7 37.4031 110.609 37.2812 110.58 37.2507C110.556 37.2261 110.457 37.1392 110.115 37.1392V35.4088ZM112.431 37.7792V40.2534H110.7V37.7792H112.431ZM112.431 40.2534C112.431 40.2678 112.432 40.2543 112.425 40.2221C112.417 40.1891 112.397 40.1247 112.346 40.0511L110.923 41.036C110.734 40.7627 110.7 40.4615 110.7 40.2534H112.431ZM112.345 40.0502C112.292 39.9743 112.213 39.8976 112.105 39.8439C112 39.7914 111.902 39.7777 111.834 39.7777V41.5082C111.488 41.5082 111.145 41.3558 110.923 41.0369L112.345 40.0502ZM111.834 39.7777C111.755 39.7777 111.654 39.7947 111.552 39.8468C111.45 39.8988 111.378 39.9692 111.332 40.0318L112.727 41.0554C112.517 41.342 112.193 41.5082 111.834 41.5082V39.7777ZM111.329 40.0353C111.283 40.0994 111.259 40.16 111.248 40.2031C111.237 40.2444 111.237 40.2697 111.237 40.271H112.967C112.967 40.4983 112.92 40.7892 112.73 41.0518L111.329 40.0353ZM112.102 39.4058H112.254V41.1362H112.102V39.4058ZM113.119 40.271C113.119 40.6308 113.019 41.0236 112.721 41.3397L111.461 40.1535C111.426 40.1907 111.405 40.2306 111.395 40.2609C111.385 40.2881 111.389 40.2953 111.389 40.271H113.119ZM112.72 41.3407C112.413 41.6655 112.014 41.785 111.638 41.785V40.0546C111.649 40.0546 111.627 40.0529 111.587 40.0682C111.544 40.0849 111.499 40.1139 111.462 40.1524L112.72 41.3407ZM111.638 41.785C111.193 41.785 110.783 41.6221 110.463 41.3017L111.688 40.0794C111.689 40.0803 111.687 40.0778 111.681 40.0737C111.674 40.0695 111.667 40.0651 111.658 40.0614C111.648 40.0577 111.641 40.0558 111.636 40.0549C111.632 40.0541 111.632 40.0546 111.638 40.0546V41.785ZM110.462 41.3005C110.089 40.9254 109.982 40.4284 109.975 39.9893L111.705 39.9644C111.707 40.0617 111.719 40.1107 111.724 40.126C111.728 40.1377 111.722 40.1133 111.69 40.0806L110.462 41.3005ZM111.645 40.2944C111.472 40.7328 111.193 41.1053 110.803 41.378L109.812 39.96C109.9 39.8982 109.976 39.8091 110.036 39.6592L111.645 40.2944ZM110.803 41.3782C110.42 41.6462 109.982 41.785 109.514 41.785V40.0546C109.625 40.0546 109.717 40.0261 109.812 39.9598L110.803 41.3782ZM109.514 41.785C109.008 41.785 108.527 41.6196 108.148 41.2488L109.357 40.0109C109.373 40.027 109.401 40.0546 109.514 40.0546V41.785Z" fill="black" mask="url(#path-31-inside-12_47_64)"/>
</g>
<defs>
<filter id="filter0_d_47_64" x="0.539136" y="0" width="140.516" height="50.2811" filterUnits="userSpaceOnUse" color-interpolation-filters="sRGB">
<feFlood flood-opacity="0" result="BackgroundImageFix"/>
<feColorMatrix in="SourceAlpha" type="matrix" values="0 0 0 0 0 0 0 0 0 0 0 0 0 0 0 0 0 0 127 0" result="hardAlpha"/>
<feOffset dy="3.46086"/>
<feGaussianBlur stdDeviation="1.73043"/>
<feComposite in2="hardAlpha" operator="out"/>
<feColorMatrix type="matrix" values="0 0 0 0 0 0 0 0 0 0 0 0 0 0 0 0 0 0 0.25 0"/>
<feBlend mode="normal" in2="BackgroundImageFix" result="effect1_dropShadow_47_64"/>
<feBlend mode="normal" in="SourceGraphic" in2="effect1_dropShadow_47_64" result="shape"/>
</filter>
</defs>
</svg>
